<svg xmlns="http://www.w3.org/2000/svg" viewBox="0 0 64 64" width="64" height="64" aria-hidden="true">
  <defs>
    <linearGradient id="object-box" x1="12" y1="12" x2="52" y2="56" gradientUnits="userSpaceOnUse">
      <stop offset="0" stop-color="#ffe08a"/>
      <stop offset=".5" stop-color="#f5af19"/>
      <stop offset="1" stop-color="#b96d08"/>
    </linearGradient>
    <linearGradient id="object-side" x1="13" y1="26" x2="51" y2="56" gradientUnits="userSpaceOnUse">
      <stop offset="0" stop-color="#38ef7d"/>
      <stop offset="1" stop-color="#11998e"/>
    </linearGradient>
    <linearGradient id="object-glow" x1="18" y1="10" x2="49" y2="43" gradientUnits="userSpaceOnUse">
      <stop offset="0" stop-color="#d9ffe8"/>
      <stop offset="1" stop-color="#38bdf8"/>
    </linearGradient>
  </defs>
  <path d="M32 10 54 21.5 32 33 10 21.5 32 10Z" fill="url(#object-box)" stroke="#d9ffe8" stroke-opacity=".72" stroke-linejoin="round" stroke-width="2.6"/>
  <path d="M10 21.5 32 33v22.5L10 44V21.5Z" fill="#0c3f3a" stroke="#d9ffe8" stroke-opacity=".5" stroke-linejoin="round" stroke-width="2.6"/>
  <path d="M54 21.5 32 33v22.5L54 44V21.5Z" fill="url(#object-side)" stroke="#d9ffe8" stroke-opacity=".5" stroke-linejoin="round" stroke-width="2.6"/>
  <path d="M21 15.8 43 27.3M43 15.8 21 27.3" fill="none" stroke="#6b3b05" stroke-opacity=".3" stroke-width="2" stroke-linecap="round"/>
  <path d="M32 33v22.5" stroke="#d9ffe8" stroke-opacity=".52" stroke-width="2.6" stroke-linecap="round"/>
  <path d="M20.5 36.5 26 39.3M20.5 42.5 26 45.3" stroke="url(#object-glow)" stroke-width="2.4" stroke-linecap="round"/>
  <path d="M43.5 35.8 49 33M43.5 42 49 39.2" stroke="#d9ffe8" stroke-opacity=".7" stroke-width="2.4" stroke-linecap="round"/>
</svg>
