<svg xmlns="http://www.w3.org/2000/svg" viewBox="0 0 64 64" width="64" height="64" aria-hidden="true">
  <defs>
    <linearGradient id="country-ocean" x1="10" y1="8" x2="54" y2="57" gradientUnits="userSpaceOnUse">
      <stop offset="0" stop-color="#38bdf8"/>
      <stop offset="1" stop-color="#0f766e"/>
    </linearGradient>
    <linearGradient id="country-land" x1="18" y1="16" x2="45" y2="48" gradientUnits="userSpaceOnUse">
      <stop offset="0" stop-color="#a7f3d0"/>
      <stop offset="1" stop-color="#38ef7d"/>
    </linearGradient>
  </defs>
  <circle cx="32" cy="32" r="26" fill="rgba(3, 16, 24, 0.24)"/>
  <circle cx="32" cy="32" r="23" fill="url(#country-ocean)" stroke="#d9ffe8" stroke-opacity=".78" stroke-width="3"/>
  <path d="M10 32h44M32 9c7.4 7 10.8 14.6 10.8 23S39.4 48 32 55M32 9C24.6 16 21.2 23.6 21.2 32S24.6 48 32 55" fill="none" stroke="#d9ffe8" stroke-opacity=".55" stroke-width="2.4" stroke-linecap="round"/>
  <path d="M19 20c4.4-4.3 11.6-6 18.4-3.2l-4.2 5.3c-1.2 1.5-.5 3.8 1.3 4.5l4.9 1.9-3.7 4.3c-.9 1.1-2.4 1.5-3.7 1l-4.8-1.8c-1.3-.5-2.8-.1-3.7 1l-4.2 5.2c-2.8-5.9-3-12.5-.3-18.2Z" fill="url(#country-land)" opacity=".95"/>
  <path d="M42.5 38.3c3.1.7 4.8 2.7 5.7 5.5-3.6 4.5-8.8 7.5-14.8 8.2l1.7-4.7c.5-1.4 1.7-2.5 3.2-2.8l2.5-.6c2.5-.6 3.2-3.8 1.7-5.6Z" fill="url(#country-land)" opacity=".92"/>
</svg>
