<svg xmlns="http://www.w3.org/2000/svg" viewBox="0 0 64 64" width="64" height="64" aria-hidden="true">
  <defs>
    <linearGradient id="city-tower" x1="12" y1="13" x2="53" y2="56" gradientUnits="userSpaceOnUse">
      <stop offset="0" stop-color="#38bdf8"/>
      <stop offset="1" stop-color="#11998e"/>
    </linearGradient>
    <linearGradient id="city-gold" x1="19" y1="18" x2="48" y2="53" gradientUnits="userSpaceOnUse">
      <stop offset="0" stop-color="#ffe08a"/>
      <stop offset="1" stop-color="#f5af19"/>
    </linearGradient>
  </defs>
  <path d="M8 55.5h48" stroke="#d9ffe8" stroke-opacity=".7" stroke-width="3" stroke-linecap="round"/>
  <rect x="11" y="27" width="12" height="28" rx="2.6" fill="url(#city-tower)" stroke="#d9ffe8" stroke-opacity=".55" stroke-width="2"/>
  <rect x="26" y="14" width="14" height="41" rx="2.8" fill="#0c3f3a" stroke="#d9ffe8" stroke-opacity=".62" stroke-width="2"/>
  <rect x="43" y="23" width="11" height="32" rx="2.4" fill="url(#city-tower)" stroke="#d9ffe8" stroke-opacity=".55" stroke-width="2"/>
  <path d="M29 14l4-6 4 6" fill="url(#city-gold)" stroke="#ffe08a" stroke-linejoin="round" stroke-width="2"/>
  <g fill="url(#city-gold)">
    <rect x="15" y="33" width="3" height="4" rx="1"/>
    <rect x="15" y="42" width="3" height="4" rx="1"/>
    <rect x="30" y="21" width="3" height="4" rx="1"/>
    <rect x="36" y="21" width="3" height="4" rx="1"/>
    <rect x="30" y="31" width="3" height="4" rx="1"/>
    <rect x="36" y="31" width="3" height="4" rx="1"/>
    <rect x="30" y="41" width="3" height="4" rx="1"/>
    <rect x="36" y="41" width="3" height="4" rx="1"/>
    <rect x="47" y="30" width="3" height="4" rx="1"/>
    <rect x="47" y="40" width="3" height="4" rx="1"/>
  </g>
</svg>
