<svg xmlns="http://www.w3.org/2000/svg" viewBox="0 0 64 64" width="64" height="64" aria-hidden="true">
  <defs>
    <linearGradient id="plant-leaf" x1="11" y1="8" x2="50" y2="54" gradientUnits="userSpaceOnUse">
      <stop offset="0" stop-color="#a7f3d0"/>
      <stop offset=".55" stop-color="#38ef7d"/>
      <stop offset="1" stop-color="#11998e"/>
    </linearGradient>
    <linearGradient id="plant-stem" x1="30" y1="18" x2="35" y2="57" gradientUnits="userSpaceOnUse">
      <stop offset="0" stop-color="#d9ffe8"/>
      <stop offset="1" stop-color="#38ef7d"/>
    </linearGradient>
  </defs>
  <path d="M32 56c-.7-12.9-.1-25.7 2-38" fill="none" stroke="url(#plant-stem)" stroke-width="4.2" stroke-linecap="round"/>
  <path d="M31.4 31.6C18.5 31.7 10.7 23.8 10 10.8c12.8-.4 21.3 7.1 22.7 19.8.1.6-.5 1-1.3 1Z" fill="url(#plant-leaf)" stroke="#d9ffe8" stroke-opacity=".66" stroke-linejoin="round" stroke-width="2.4"/>
  <path d="M36 37.4c11.4.4 18.2-6.3 18.9-17.6-11.5-.5-19 5.8-20.3 16.4-.1.7.5 1.2 1.4 1.2Z" fill="url(#plant-leaf)" stroke="#d9ffe8" stroke-opacity=".66" stroke-linejoin="round" stroke-width="2.4"/>
  <path d="M16.5 15.5c5.1 2.7 9.7 6.9 13.7 12.6M50 24.4c-5 2.3-9.2 5.8-12.8 10.5" fill="none" stroke="#06362f" stroke-opacity=".36" stroke-width="2.2" stroke-linecap="round"/>
  <path d="M20 57h25" stroke="#d9ffe8" stroke-opacity=".72" stroke-width="3" stroke-linecap="round"/>
</svg>
