<svg xmlns="http://www.w3.org/2000/svg" viewBox="0 0 96 96" aria-hidden="true">
  <defs>
    <linearGradient id="daily-ring" x1="16" y1="12" x2="82" y2="86" gradientUnits="userSpaceOnUse">
      <stop offset="0" stop-color="#38bdf8"/>
      <stop offset="0.52" stop-color="#38ef7d"/>
      <stop offset="1" stop-color="#f5af19"/>
    </linearGradient>
    <linearGradient id="daily-land" x1="22" y1="22" x2="72" y2="74" gradientUnits="userSpaceOnUse">
      <stop offset="0" stop-color="#d9ffe8" stop-opacity="0.92"/>
      <stop offset="0.55" stop-color="#38ef7d" stop-opacity="0.9"/>
      <stop offset="1" stop-color="#38bdf8" stop-opacity="0.84"/>
    </linearGradient>
    <linearGradient id="daily-needle" x1="38" y1="24" x2="61" y2="70" gradientUnits="userSpaceOnUse">
      <stop offset="0" stop-color="#fff7bf"/>
      <stop offset="1" stop-color="#f5af19"/>
    </linearGradient>
    <filter id="daily-glow" x="-35%" y="-35%" width="170%" height="170%">
      <feGaussianBlur stdDeviation="2.6" result="blur"/>
      <feMerge>
        <feMergeNode in="blur"/>
        <feMergeNode in="SourceGraphic"/>
      </feMerge>
    </filter>
  </defs>

  <circle cx="48" cy="48" r="39" fill="#06151a" fill-opacity="0.82" stroke="url(#daily-ring)" stroke-width="5" filter="url(#daily-glow)"/>
  <circle cx="48" cy="48" r="29" fill="none" stroke="#d9ffe8" stroke-width="2.6" opacity="0.42"/>
  <path d="M19 48h58M48 19c-9 9-13 18-13 29s4 20 13 29c9-9 13-18 13-29s-4-20-13-29Z" fill="none" stroke="#38bdf8" stroke-width="2.8" stroke-linecap="round" stroke-linejoin="round" opacity="0.8"/>
  <path d="M31 39c5-9 14-11 22-6 5 3 6 10 2 14-4 5-12 4-18 1-5-2-10-1-14 3 1-5 3-9 8-12Zm28 16c6-2 12 1 14 7-5 7-14 9-22 5 0-6 3-10 8-12Z" fill="url(#daily-land)" opacity="0.94"/>

  <g filter="url(#daily-glow)">
    <path d="M52 17l7 27 21 8-20 8-8 21-8-21-27-8 27-8Z" fill="url(#daily-needle)" stroke="#fff7bf" stroke-width="1.6" stroke-linejoin="round"/>
    <circle cx="52" cy="52" r="5.5" fill="#06151a" stroke="#d9ffe8" stroke-width="2"/>
  </g>

  <g transform="translate(61 9)" fill="none" stroke-linecap="round" stroke-linejoin="round">
    <rect x="0" y="4" width="22" height="24" rx="6" fill="#06151a" stroke="#f5af19" stroke-width="2.6"/>
    <path d="M5 2v6M17 2v6M3 12h16" stroke="#fff7bf" stroke-width="2"/>
    <path d="M7 19h8" stroke="#38ef7d" stroke-width="3"/>
  </g>
</svg>
