<svg xmlns="http://www.w3.org/2000/svg" viewBox="0 0 1000 620" role="img" aria-label="Nema karta Italije">
  <defs>
    <linearGradient id="sea" x1="0" y1="0" x2="1" y2="1"><stop offset="0" stop-color="#0b3e67"/><stop offset="1" stop-color="#071b45"/></linearGradient>
    <linearGradient id="land" x1="0" y1="0" x2=".8" y2="1"><stop offset="0" stop-color="#86c5ad"/><stop offset="1" stop-color="#3f867b"/></linearGradient>
    <pattern id="grid" width="100" height="62" patternUnits="userSpaceOnUse"><path d="M100 0H0V62" fill="none" stroke="#bdefff" stroke-opacity=".1" stroke-width="1"/></pattern>
    <filter id="shadow" x="-10%" y="-10%" width="120%" height="120%"><feDropShadow dx="0" dy="9" stdDeviation="10" flood-color="#00142f" flood-opacity=".52"/></filter>
  </defs>
  <rect width="1000" height="620" rx="34" fill="url(#sea)"/><rect width="1000" height="620" rx="34" fill="url(#grid)"/>
  <path d="M324.2,114.0L345.4,113.8L354.5,111.1L358.0,99.4L369.4,93.4L378.5,106.3L384.2,115.8L386.3,112.1L393.8,101.5L399.5,91.0L409.5,97.4L421.1,101.6L419.8,91.0L427.7,87.2L431.3,80.6L441.6,77.0L451.5,76.8L465.1,68.4L472.2,68.9L486.0,69.3L490.7,76.7L503.8,83.4L531.4,87.8L527.8,95.9L530.8,102.2L529.2,111.2L536.2,120.6L539.2,127.0L528.9,123.2L518.7,121.4L516.7,126.0L496.8,132.1L499.1,130.9L494.8,130.3L490.1,137.1L488.6,140.9L491.7,144.0L493.8,150.9L497.7,154.1L497.7,158.9L494.8,160.4L491.2,169.4L502.3,194.1L529.7,211.1L538.9,229.1L566.5,271.8L581.4,282.7L614.5,289.9L625.8,311.6L657.2,329.7L680.1,344.9L688.1,362.1L679.9,371.3L672.6,359.3L652.9,349.7L648.2,343.4L629.5,359.4L629.1,380.2L644.6,394.7L645.3,409.5L627.1,416.9L614.0,444.2L597.3,445.0L604.9,423.2L616.2,410.9L603.1,377.3L593.8,361.5L581.1,357.0L576.3,349.8L561.2,337.7L559.1,332.7L548.2,330.2L535.5,311.5L516.8,312.6L499.5,299.1L483.0,280.5L471.4,268.1L456.0,264.3L455.2,256.1L443.0,243.8L435.7,233.8L422.1,194.7L413.1,191.3L407.4,189.4L394.0,180.8L377.3,178.2L368.2,186.7L358.0,198.8L340.5,198.7L334.3,190.1L321.9,183.3L321.3,169.3L323.6,160.4L310.8,148.7L320.4,146.0L328.6,135.7L320.9,125.5L319.4,117.4L324.2,114.0ZM594.3,436.1L584.2,459.0L583.2,478.9L584.7,484.8L586.0,491.1L580.5,505.7L567.0,502.0L537.8,484.4L520.1,471.4L500.1,463.4L497.4,454.3L503.3,444.0L514.8,446.3L522.0,440.3L531.7,446.8L548.4,447.9L574.5,441.0L585.0,438.2L594.3,436.1ZM412.1,340.9L406.9,355.7L408.9,368.3L407.9,378.3L404.9,398.0L400.9,401.0L391.3,398.4L389.5,397.5L383.4,410.9L375.3,411.1L370.2,402.1L367.0,396.9L369.9,382.3L371.7,374.7L369.4,368.7L367.7,364.9L370.3,353.3L361.4,340.0L360.7,334.9L362.6,324.9L383.4,321.5L392.2,314.4L396.0,313.6L400.3,315.5L403.6,315.8L403.2,321.5L406.6,322.2L406.3,325.6L408.9,329.9L412.1,340.9ZM432.8,244.2L429.9,247.9L425.8,245.9L431.2,243.6L432.8,244.2Z" fill="url(#land)" stroke="#d3fff0" stroke-opacity=".64" stroke-width="3" stroke-linejoin="round" filter="url(#shadow)"/>
  <path d="M68 73h56M96 45v56" stroke="#d3fff0" stroke-opacity=".65" stroke-width="3" stroke-linecap="round"/><path d="M96 45 85 68h22Z" fill="#ffd96a"/>
</svg>
