<svg xmlns="http://www.w3.org/2000/svg" viewBox="0 0 1000 620" role="img" aria-label="Nema karta Nemačke">
  <defs>
    <linearGradient id="sea" x1="0" y1="0" x2="1" y2="1"><stop offset="0" stop-color="#315c71"/><stop offset="1" stop-color="#172d4b"/></linearGradient>
    <linearGradient id="land" x1="0" y1="0" x2=".8" y2="1"><stop offset="0" stop-color="#e3cf9d"/><stop offset=".46" stop-color="#b8b47e"/><stop offset="1" stop-color="#718d71"/></linearGradient>
    <pattern id="grid" width="100" height="62" patternUnits="userSpaceOnUse"><path d="M100 0H0V62" fill="none" stroke="#f0e5c5" stroke-opacity=".055" stroke-width="1"/></pattern>
    <filter id="shadow" x="-10%" y="-10%" width="120%" height="120%"><feDropShadow dx="0" dy="9" stdDeviation="10" flood-color="#11162e" flood-opacity=".58"/></filter>
  </defs>
  <rect width="1000" height="620" rx="34" fill="url(#sea)"/><rect width="1000" height="620" rx="34" fill="url(#grid)"/>
  <path d="M448.7,514.3L429.6,506.0L412.6,506.9L410.0,504.2L404.2,504.4L395.5,500.2L386.0,505.0L394.3,506.7L394.7,508.6L387.4,510.5L374.5,509.6L359.2,512.0L339.0,509.6L337.0,505.9L341.8,478.8L346.9,471.9L354.3,451.9L371.3,437.9L370.9,433.0L341.6,428.1L332.5,423.0L309.3,425.3L307.3,421.5L301.3,419.9L292.4,422.5L281.3,409.4L270.6,406.2L272.4,397.9L278.5,391.9L278.7,386.8L265.5,382.6L259.1,376.9L257.3,370.2L261.1,362.5L271.6,357.7L270.4,350.1L261.3,346.2L264.5,342.1L250.8,333.4L254.0,324.7L243.3,317.7L258.5,311.2L255.4,306.8L262.1,296.4L262.1,292.0L248.4,274.4L260.5,270.1L271.2,273.3L292.8,268.4L296.2,264.5L291.4,261.4L291.8,258.9L306.1,251.9L309.3,242.0L305.5,238.5L293.2,237.4L290.0,233.7L293.2,227.8L308.1,227.9L317.4,209.2L318.4,191.5L310.3,186.3L313.4,176.2L318.8,170.6L363.8,168.7L372.7,176.8L369.5,181.1L377.1,182.4L382.0,173.3L391.0,178.5L391.0,185.2L393.5,176.2L392.9,163.6L398.1,158.3L413.6,160.5L431.0,159.3L437.4,161.8L452.2,173.7L463.3,176.3L454.8,173.7L436.8,159.2L418.1,155.4L414.0,151.3L414.2,136.7L407.0,133.7L399.5,134.8L399.7,129.0L416.7,125.1L417.1,121.1L401.5,106.9L400.9,100.7L414.0,101.0L433.6,106.0L454.0,103.4L469.3,107.6L476.6,113.5L477.0,118.8L468.1,124.8L483.5,123.9L487.3,128.4L495.6,126.7L516.3,133.5L532.3,130.0L535.1,135.6L531.9,141.1L520.8,147.1L526.8,151.5L537.3,150.8L553.9,154.4L576.1,143.2L593.8,141.8L619.9,125.1L645.3,128.3L651.9,135.5L668.7,143.4L684.2,142.7L689.7,150.2L692.1,159.5L701.0,164.3L714.1,166.4L722.8,195.2L720.3,201.5L707.4,211.1L706.8,214.2L728.4,227.2L734.3,233.8L730.6,243.2L737.7,249.3L739.1,257.2L741.7,258.8L733.3,272.8L741.1,284.3L740.3,290.1L752.0,295.1L756.7,305.3L753.6,314.1L742.5,329.6L734.1,327.6L734.7,324.3L730.2,319.8L717.5,317.3L713.9,319.3L720.3,325.1L674.7,336.0L668.1,341.8L664.6,340.6L657.0,343.1L653.8,346.9L644.5,348.0L640.4,352.7L630.3,351.3L618.2,353.4L603.1,365.3L595.0,358.0L592.6,360.4L599.3,370.0L616.2,381.4L609.4,390.1L622.9,405.7L659.8,426.0L666.1,432.8L674.3,433.8L686.6,441.9L689.3,444.6L687.7,454.6L681.4,458.2L670.9,454.9L664.6,467.3L637.8,476.1L630.1,481.6L641.0,493.8L637.8,503.2L645.5,504.5L646.7,506.9L644.5,516.8L633.0,513.2L630.8,507.8L625.9,506.1L614.6,508.0L599.3,503.4L597.9,508.9L571.6,511.0L548.2,519.8L533.9,521.6L530.5,521.3L524.4,514.5L500.0,512.7L496.2,523.1L485.7,528.0L486.7,523.2L479.2,521.6L478.8,518.5L473.8,515.4L461.5,511.4L448.7,514.3ZM683.4,129.8L683.2,135.5L670.5,132.4L666.9,137.3L664.0,137.5L652.7,130.8L653.6,120.8L657.0,115.5L667.3,112.1L671.1,116.8L680.4,119.9L676.1,125.3L683.4,129.8ZM711.5,154.1L711.7,158.6L695.5,158.1L695.3,151.5L689.9,147.9L689.9,144.2L711.5,154.1ZM547.4,127.9L538.7,128.0L532.1,125.2L536.3,121.4L544.6,123.2L547.4,127.9ZM380.5,107.2L379.3,108.3L379.9,100.4L386.0,92.0L388.6,92.2L384.6,100.9L398.7,101.3L382.8,103.8L380.5,107.2ZM396.3,111.4L385.8,111.3L391.8,108.6L396.3,111.4Z" fill="url(#land)" stroke="#fff0c7" stroke-opacity=".73" stroke-width="3" stroke-linejoin="round" filter="url(#shadow)"/>
  <path d="M68 73h56M96 45v56" stroke="#f6e5bc" stroke-opacity=".62" stroke-width="3" stroke-linecap="round"/><path d="M96 45 85 68h22Z" fill="#e9bc76"/>
</svg>
