<svg xmlns="http://www.w3.org/2000/svg" viewBox="0 0 1000 620" role="img" aria-label="Nema karta Poljske">
  <defs>
    <linearGradient id="sea" x1="0" y1="0" x2="1" y2="1"><stop offset="0" stop-color="#315c71"/><stop offset="1" stop-color="#172d4b"/></linearGradient>
    <linearGradient id="land" gradientUnits="userSpaceOnUse" x1="250" y1="82" x2="760" y2="590"><stop offset="0" stop-color="#e3cf9d"/><stop offset=".46" stop-color="#b8b47e"/><stop offset="1" stop-color="#718d71"/></linearGradient>
    <pattern id="grid" width="100" height="62" patternUnits="userSpaceOnUse"><path d="M100 0H0V62" fill="none" stroke="#f0e5c5" stroke-opacity=".055" stroke-width="1"/></pattern>
    <filter id="land-effect" x="-12%" y="-12%" width="124%" height="124%">
      <feMorphology in="SourceAlpha" operator="dilate" radius="3" result="expanded"/>
      <feFlood flood-color="#fff0c7" flood-opacity=".73" result="outline-color"/>
      <feComposite in="outline-color" in2="expanded" operator="in" result="outline"/>
      <feDropShadow in="SourceAlpha" dx="0" dy="9" stdDeviation="10" flood-color="#11162e" flood-opacity=".58" result="shadow"/>
      <feMerge><feMergeNode in="shadow"/><feMergeNode in="outline"/><feMergeNode in="SourceGraphic"/></feMerge>
    </filter>
    <clipPath id="card"><rect width="1000" height="620" rx="34"/></clipPath>
  </defs>
  <g clip-path="url(#card)">
    <rect width="1000" height="620" fill="url(#sea)"/>
    <rect width="1000" height="620" fill="url(#grid)"/>
    <path d="M483.80,523.34L484.03,521.95L483.87,520.24L483.10,516.69L482.86,515.94L482.22,514.48L481.97,513.68L481.61,510.82L481.39,510.17L480.58,509.56L479.74,509.71L478.89,510.08L478.11,510.14L477.43,509.73L476.37,508.48L475.67,507.90L474.90,507.67L473.24,507.52L472.52,507.02L472.18,506.39L471.64,503.96L470.37,501.34L469.43,498.80L469.41,496.56L470.89,494.84L469.46,494.06L469.22,493.04L469.36,491.75L469.02,490.23L468.23,489.75L466.10,491.11L464.85,491.12L460.84,488.90L458.75,488.15L456.58,488.42L456.70,488.42L456.79,488.47L456.86,488.56L456.93,488.71L455.41,490.03L454.63,490.18L453.56,489.30L453.26,488.74L452.89,487.44L452.66,486.98L452.02,486.50L450.75,486.24L450.12,485.95L448.42,484.48L447.60,484.03L444.15,483.37L443.45,482.56L443.80,481.01L440.65,478.94L439.89,478.75L438.99,478.53L439.23,480.43L439.52,480.55L439.95,480.41L440.41,480.43L440.79,481.01L440.88,481.85L440.61,482.21L438.85,482.74L436.69,482.80L435.71,483.06L434.12,484.48L432.16,485.08L430.20,484.66L426.70,481.18L426.09,480.34L425.67,479.33L425.37,478.30L425.00,477.37L424.40,476.65L423.90,476.14L423.73,475.66L423.90,475.20L424.40,474.77L424.43,474.71L424.44,474.64L424.43,474.57L424.40,474.48L423.65,474.32L422.18,473.59L421.47,473.40L420.90,473.54L420.44,473.80L419.89,473.90L419.05,473.52L416.43,470.19L416.32,469.58L416.72,468.73L417.31,468.43L419.91,468.33L421.35,467.77L423.65,466.39L424.74,465.44L425.25,464.16L424.40,462.60L423.83,462.03L423.71,461.18L423.82,460.41L424.40,458.83L424.53,458.57L424.57,458.32L424.54,458.09L424.40,457.90L423.41,456.55L423.11,456.27L422.20,455.93L421.84,456.16L421.71,456.73L421.40,457.42L419.80,459.64L418.88,460.40L417.63,460.73L412.81,459.87L410.24,460.11L408.66,462.03L408.38,462.22L408.09,462.28L407.80,462.22L407.53,462.03L407.03,460.47L405.85,459.51L404.66,459.60L404.07,461.15L403.35,460.60L402.98,459.73L402.87,458.66L402.94,457.56L402.70,457.35L402.47,457.11L402.28,456.82L402.13,456.50L403.13,456.10L402.01,455.63L399.48,455.70L398.20,455.33L396.30,454.13L395.77,453.55L395.44,452.81L395.11,451.72L394.93,450.80L395.04,450.57L394.41,450.38L392.77,450.72L392.03,450.71L391.34,450.34L390.08,449.28L389.49,448.92L383.95,447.36L382.70,447.51L381.90,447.03L380.38,446.12L379.15,445.96L377.68,446.85L377.69,448.03L379.42,450.59L380.03,452.14L380.43,453.94L380.96,455.57L381.97,456.62L383.29,457.39L384.27,458.47L384.84,459.99L384.91,462.03L385.62,462.97L385.72,464.08L385.38,464.80L384.72,464.55L384.15,463.69L383.90,463.18L383.58,462.95L382.78,462.94L382.63,463.17L382.64,464.19L382.51,464.50L382.03,464.54L381.03,464.18L380.55,464.20L379.91,464.64L379.01,465.89L378.50,466.35L377.90,466.50L377.24,466.67L376.16,466.60L375.09,466.75L373.88,467.79L372.91,469.26L372.33,470.40L371.67,471.34L370.47,472.21L368.81,474.48L366.62,474.64L364.35,473.46L362.50,471.75L361.55,470.50L361.04,469.45L360.43,466.58L359.84,464.98L358.21,463.28L357.53,462.03L356.75,460.97L355.37,458.47L354.60,457.37L353.40,456.53L351.00,455.65L350.04,454.37L349.90,453.63L349.94,452.86L349.91,452.08L349.53,451.29L349.01,451.13L346.55,451.13L345.93,451.33L345.54,451.67L345.14,451.76L344.45,451.20L344.20,450.71L343.50,448.53L341.75,448.22L341.24,446.70L341.67,445.36L342.74,445.61L342.64,445.35L342.38,444.41L342.71,444.38L343.20,444.06L343.50,443.94L344.33,443.25L345.28,442.68L346.09,441.98L346.50,440.89L347.35,440.61L349.08,441.10L350.01,440.89L350.51,440.18L351.62,439.07L352.08,438.43L351.93,438.47L351.93,437.97L352.00,437.32L352.08,436.89L352.32,436.40L352.47,436.16L352.47,435.88L352.26,435.24L353.96,434.54L353.47,432.92L348.87,428.04L347.22,427.10L345.46,426.65L343.50,426.61L342.80,426.76L342.41,427.61L342.02,428.70L341.36,429.53L340.45,429.74L339.63,429.35L337.93,428.04L335.65,427.81L332.31,431.06L330.02,431.48L329.90,431.23L329.86,430.96L329.91,430.69L330.02,430.41L330.79,429.78L330.91,428.77L330.62,427.59L330.15,426.44L329.45,425.10L328.72,424.40L327.83,424.27L324.64,425.48L323.14,425.52L322.80,425.40L320.07,420.75L319.90,420.23L319.78,419.64L318.44,419.52L313.96,420.61L313.39,420.42L313.00,420.04L312.28,418.94L311.67,418.53L300.88,414.74L298.63,414.93L298.13,415.56L297.62,416.46L297.02,417.09L296.93,417.07L296.26,416.85L295.91,416.15L295.95,415.33L296.11,414.48L296.09,413.65L295.44,412.05L294.62,411.37L293.65,410.94L292.57,410.07L292.00,409.14L291.36,407.73L290.86,406.22L290.70,405.01L291.08,403.43L291.55,402.54L291.60,401.71L290.74,400.31L289.30,399.59L286.23,399.54L285.72,398.28L285.47,396.98L284.84,396.66L284.14,397.15L283.66,398.27L283.66,398.28L283.48,399.15L282.87,399.28L282.11,398.90L281.48,398.27L281.02,397.43L278.29,396.83L277.26,395.88L277.11,396.59L276.86,396.98L276.08,397.55L275.77,397.62L275.47,397.76L275.20,397.99L274.95,398.28L274.94,398.28L275.17,399.25L276.05,399.95L276.87,401.15L276.93,403.63L276.76,404.07L276.23,404.67L276.08,404.96L276.03,405.44L276.06,405.76L276.13,406.01L276.19,408.98L276.08,409.71L269.92,409.26L267.97,409.81L266.82,409.77L266.83,408.18L267.59,406.91L269.51,404.77L272.23,398.28L274.64,392.16L274.80,391.18L274.81,389.52L274.91,388.68L275.20,388.08L275.61,387.69L275.97,387.11L276.08,386.01L276.14,383.84L276.58,381.42L277.31,379.13L278.24,377.31L278.02,377.07L277.82,376.80L278.10,374.30L277.31,372.61L276.09,371.17L275.09,369.41L274.94,368.81L274.71,367.26L274.71,367.18L274.39,363.52L274.19,361.24L274.64,360.16L274.09,358.97L273.09,357.92L272.25,357.25L271.03,356.67L268.49,355.92L267.26,355.21L267.26,355.20L266.13,354.38L262.60,353.20L261.41,351.95L261.23,351.03L261.11,350.41L261.55,348.72L262.60,347.05L263.24,345.32L263.15,343.03L262.62,340.82L261.92,339.32L259.30,337.13L258.09,335.70L257.53,333.49L257.32,331.19L256.57,330.18L255.60,329.51L254.71,328.15L254.55,326.30L255.26,324.79L258.35,321.62L259.34,320.29L260.17,318.72L260.63,317.00L260.82,311.66L261.11,310.81L262.27,308.69L262.50,307.86L262.60,307.05L262.78,306.27L263.19,305.52L264.18,304.28L260.67,301.65L260.13,300.39L260.46,298.11L261.04,296.51L261.25,295.25L260.47,294.03L260.47,293.48L261.52,292.08L261.54,290.28L260.70,288.73L259.19,288.07L257.66,287.71L255.83,286.77L254.62,285.41L254.94,283.80L253.81,281.24L252.53,277.38L252.23,273.87L255.02,271.40L256.33,269.32L257.22,267.24L256.97,266.30L255.96,265.38L256.38,263.32L257.89,260.13L256.21,258.75L255.90,258.40L252.77,254.87L249.55,253.58L248.00,251.46L246.97,250.98L246.41,250.43L244.56,246.78L243.73,245.80L238.00,241.56L236.52,240.76L234.76,238.68L233.68,238.20L232.48,238.11L231.35,237.75L230.41,237.02L229.80,235.76L231.23,234.51L231.79,233.43L232.01,231.74L231.89,230.62L231.23,227.45L230.91,226.55L230.91,225.99L233.51,224.04L236.80,222.32L239.98,219.78L241.63,218.04L242.36,216.42L242.51,215.67L244.12,210.58L244.01,209.28L243.69,208.01L243.49,206.54L243.64,205.35L244.03,204.24L244.56,203.44L245.13,203.13L245.53,202.54L246.93,199.76L246.23,199.11L246.02,198.61L245.19,197.90L244.86,197.33L244.70,196.44L244.66,194.81L244.58,194.04L244.22,192.35L243.09,187.08L242.52,182.39L241.39,180.48L240.83,178.59L239.52,176.55L239.13,174.68L239.09,172.67L239.23,169.35L239.13,168.45L238.00,164.92L237.19,163.13L237.41,161.72L237.34,159.16L237.35,159.15L237.87,159.09L238.84,158.67L239.56,158.00L239.63,157.26L238.68,156.60L239.20,156.28L239.38,155.97L239.20,155.66L238.68,155.35L238.98,154.67L239.51,155.15L240.27,155.52L240.93,156.03L241.56,157.79L242.33,158.38L243.80,159.09L244.88,160.26L245.47,160.75L247.85,161.16L250.75,162.20L251.75,162.99L252.57,164.18L254.35,167.59L254.97,168.39L255.25,168.13L255.31,166.67L255.56,165.82L256.02,165.27L256.76,164.68L256.72,164.33L256.70,163.98L256.76,163.44L256.18,163.27L254.80,163.15L254.18,162.82L252.50,158.78L252.86,156.76L254.18,152.81L254.80,153.36L255.33,153.20L255.92,152.85L256.76,152.81L256.38,150.50L256.57,148.67L256.95,147.04L257.13,145.32L256.76,145.32L256.63,146.41L256.20,147.14L254.91,148.44L255.25,149.07L254.78,148.87L254.40,148.62L254.10,148.28L253.81,147.82L254.08,147.55L254.57,146.90L254.91,146.57L254.17,145.02L252.89,144.29L246.91,143.66L246.06,142.73L246.75,140.94L246.57,140.76L246.53,140.73L246.51,140.66L246.41,140.32L245.88,141.23L245.45,141.36L245.00,141.12L244.35,140.94L243.88,141.13L243.51,141.58L243.15,142.17L242.69,142.77L244.30,143.08L245.18,143.48L245.64,144.07L245.53,145.18L244.97,145.99L244.29,146.30L243.80,145.94L242.33,146.88L241.59,147.11L240.82,147.19L240.82,147.82L241.56,148.11L241.52,148.30L240.82,148.44L240.31,148.36L239.46,147.92L238.83,147.82L237.93,147.21L235.33,143.45L234.07,142.86L233.94,142.88L233.51,141.45L232.57,140.29L233.08,140.14L233.53,139.83L234.44,137.36L235.33,137.76L235.92,138.26L237.57,138.88L242.91,139.33L245.05,138.88L247.14,137.76L251.02,134.90L265.29,128.54L277.59,125.30L292.60,118.95L302.32,116.35L312.96,113.46L323.42,108.71L332.11,107.62L338.08,105.61L337.40,106.30L334.73,107.50L335.90,108.34L340.65,107.50L340.65,106.93L340.28,106.93L340.28,106.25L342.86,106.25L342.83,105.80L342.77,105.72L342.67,105.75L342.49,105.61L342.59,104.12L341.35,104.06L338.41,104.99L340.27,104.06L342.50,102.60L345.84,98.67L345.16,100.05L343.96,101.31L343.49,102.00L343.98,101.82L344.96,101.62L345.81,101.27L346.56,100.37L348.46,99.47L349.15,98.67L348.51,97.32L347.44,97.29L346.96,97.86L346.17,98.67L348.46,94.71L354.71,86.64L354.71,87.22L354.42,88.12L354.96,88.35L355.83,88.02L356.52,87.22L356.86,85.97L356.55,85.59L355.85,85.88L355.05,86.64L356.15,84.43L358.03,82.54L361.71,80.24L372.98,78.57L377.35,76.82L379.65,76.43L381.68,75.69L386.86,70.01L403.12,62.36L423.52,58.48L432.68,55.33L447.08,54.00L455.95,54.00L457.17,54.45L459.13,56.17L459.85,56.55L460.98,56.81L479.41,67.86L482.76,72.23L483.31,73.25L483.86,74.70L483.91,75.97L482.96,76.43L482.72,76.11L482.46,75.43L482.13,74.76L481.15,74.07L480.49,72.32L479.60,71.18L477.04,66.82L476.54,66.58L474.64,66.19L474.16,65.99L473.65,65.11L472.12,64.58L468.90,62.36L465.73,60.83L465.22,60.10L463.47,58.74L463.01,58.52L462.35,58.82L462.01,59.30L461.25,61.97L461.14,62.59L461.14,63.95L461.43,64.30L462.72,64.88L463.01,65.23L463.66,66.37L464.45,68.09L464.42,68.81L464.21,69.43L464.23,70.04L464.85,70.70L464.53,72.52L465.14,73.30L466.17,73.08L467.07,71.92L466.75,73.47L467.19,74.70L467.86,75.75L469.22,79.98L469.64,80.87L469.43,83.01L469.47,86.68L469.82,90.16L470.58,91.71L471.43,92.00L473.07,93.26L473.91,93.55L474.64,93.63L475.54,93.91L476.31,94.41L476.64,95.22L477.55,96.50L486.64,99.45L488.65,99.60L490.34,98.67L490.80,99.14L491.43,99.48L492.91,99.93L513.14,96.90L517.61,94.74L519.73,94.24L521.44,93.45L524.76,89.98L525.67,89.57L526.82,90.51L529.49,91.43L533.70,91.66L544.83,92.25L565.72,93.37L581.30,94.20L596.87,95.03L616.17,96.06L639.55,97.31L654.55,98.10L669.56,98.90L682.14,99.58L692.28,100.12L695.99,98.88L697.00,98.05L698.37,95.51L698.44,95.38L699.79,94.75L700.93,94.91L704.17,96.58L704.75,96.66L705.98,96.40L706.53,96.53L707.11,97.11L707.41,97.83L707.65,98.56L707.99,99.15L708.60,99.57L710.45,99.79L710.79,100.30L710.60,101.18L710.28,102.22L710.28,103.20L711.25,104.56L712.49,104.56L713.77,104.01L714.86,103.77L715.84,104.24L719.19,107.06L721.24,108.32L725.59,109.97L726.67,110.89L727.66,111.75L728.18,112.56L729.16,114.44L729.66,115.15L730.22,115.53L731.38,115.85L731.87,116.15L732.77,117.47L733.52,119.31L734.11,121.37L734.52,123.34L735.31,127.62L735.32,129.70L734.52,131.11L733.87,131.65L733.58,132.01L733.32,132.42L733.28,133.40L733.51,134.24L733.95,134.90L734.52,135.37L734.84,135.79L735.00,136.24L734.96,136.75L734.74,137.28L734.81,139.97L735.36,142.20L736.08,144.31L736.63,146.61L737.12,151.47L737.69,153.35L739.00,155.28L739.01,155.28L739.13,160.88L740.42,167.22L745.00,181.34L747.54,186.64L748.62,189.50L750.78,198.04L751.73,200.61L752.70,201.91L753.23,203.19L753.65,204.50L754.29,205.89L755.25,206.95L756.18,207.67L756.75,208.76L756.62,210.93L756.14,212.23L755.49,213.31L754.97,214.55L754.90,216.30L755.36,217.82L756.99,219.93L757.61,221.26L757.70,221.94L757.57,223.02L757.58,223.59L758.03,226.09L758.06,226.81L757.90,227.36L757.30,228.56L757.15,229.27L757.20,230.23L757.38,230.77L757.60,231.22L757.74,231.90L758.19,242.72L758.30,245.40L757.56,249.21L755.41,251.86L748.25,256.76L739.24,259.34L734.46,262.13L729.70,266.10L723.14,276.23L720.98,278.89L719.98,280.44L717.48,285.57L717.65,285.61L718.04,285.94L718.44,286.28L719.04,287.15L719.21,288.31L718.78,289.87L719.99,290.66L723.87,291.71L724.70,291.38L725.41,292.10L728.76,293.36L729.89,293.48L729.89,294.03L729.50,294.84L729.65,294.98L730.43,294.68L731.10,294.98L731.59,295.49L732.10,295.58L732.84,294.68L733.06,295.07L733.59,295.52L733.95,295.94L734.85,295.06L735.06,295.72L734.91,296.77L734.69,297.08L736.19,300.09L737.24,300.42L739.79,300.34L740.81,300.96L741.17,301.64L741.44,302.35L741.76,302.91L742.27,303.14L742.93,303.60L743.15,304.61L743.20,305.62L743.65,306.71L744.41,310.03L745.03,311.52L744.18,312.15L743.47,313.27L742.45,315.70L742.10,317.31L742.06,320.14L741.71,321.13L741.92,321.22L742.02,321.22L742.06,321.33L742.09,321.73L741.44,322.09L741.22,323.98L740.61,324.71L741.46,326.29L742.45,327.64L741.85,329.66L740.81,330.70L739.68,331.39L738.77,332.45L738.55,333.08L738.33,334.01L738.03,336.02L738.22,336.47L738.59,337.08L738.71,337.62L738.21,337.86L738.00,338.10L738.17,338.66L738.50,339.26L738.77,339.64L738.08,340.50L737.75,340.70L737.26,340.77L737.26,341.42L737.88,342.09L737.95,342.93L737.67,345.27L737.85,346.52L738.32,347.73L739.50,349.77L739.14,349.81L738.77,349.77L739.44,351.13L740.30,351.45L741.03,351.90L741.24,353.06L741.34,353.59L741.71,354.81L742.55,355.40L743.53,355.76L744.29,356.28L743.45,358.01L743.54,358.55L745.73,361.80L746.17,362.84L745.55,363.13L745.16,363.73L745.10,364.62L745.43,365.79L744.44,366.18L743.49,367.20L742.74,368.47L742.45,369.62L742.81,371.45L743.65,371.89L744.69,371.91L745.61,372.51L748.60,379.07L749.82,380.56L752.56,382.30L755.12,384.92L755.73,385.97L754.83,386.43L754.63,387.22L755.43,388.92L756.85,391.12L757.32,392.27L757.95,395.86L757.95,396.40L757.72,397.07L758.12,397.42L758.80,397.70L759.46,398.15L760.06,399.06L760.21,399.77L760.26,400.54L760.56,401.66L761.37,403.00L765.01,406.38L769.51,408.87L770.20,409.94L769.54,411.42L767.90,411.77L766.11,411.78L765.01,412.27L763.59,411.47L762.10,411.66L760.86,412.61L760.20,414.07L760.30,415.71L761.10,416.79L762.37,417.38L763.88,417.57L763.88,418.10L763.17,419.59L763.93,420.90L765.40,421.82L766.85,422.18L766.52,424.12L766.95,425.91L768.32,429.21L768.33,429.25L767.08,431.41L767.63,435.45L768.01,436.58L768.29,436.81L768.22,437.00L767.55,437.97L766.53,439.07L763.06,440.89L762.91,441.91L762.99,443.54L762.90,444.64L762.66,445.56L761.47,448.34L758.64,449.52L748.86,449.65L747.00,450.24L746.07,450.71L745.34,451.43L744.75,452.68L744.07,454.92L744.04,455.04L743.29,456.13L739.04,460.76L737.48,462.03L737.47,462.03L737.46,462.03L737.46,462.03L734.52,464.29L732.09,466.19L719.76,479.60L718.14,482.12L716.16,483.67L714.02,486.05L708.17,494.65L705.91,496.98L705.63,497.67L705.19,499.35L704.94,499.95L704.47,500.42L703.52,500.77L703.04,501.09L702.52,501.73L699.20,507.77L698.29,508.69L697.70,508.94L696.54,509.18L695.93,509.70L695.54,510.42L694.61,513.08L690.52,518.59L689.18,521.80L690.21,524.77L690.58,525.99L690.91,529.52L691.11,530.46L691.26,530.92L691.97,532.03L693.13,533.27L693.43,533.90L693.67,535.22L694.40,542.80L694.19,544.00L693.29,546.52L692.52,549.44L691.67,551.23L691.38,552.23L691.71,552.67L691.96,552.50L692.67,551.60L693.52,552.20L693.45,552.23L693.25,552.29L695.00,553.52L696.58,555.60L697.57,556.34L699.99,557.70L700.64,558.53L700.64,559.23L700.15,560.84L700.09,561.96L700.32,562.74L701.20,564.25L701.26,564.42L701.37,564.69L700.74,566.00L699.65,565.53L698.45,564.45L697.49,563.94L696.89,563.75L695.90,562.35L695.35,561.83L694.76,561.76L693.55,562.13L691.60,561.99L690.44,562.10L689.28,561.96L687.96,561.05L685.93,558.81L684.85,558.47L683.71,559.57L681.85,558.64L677.63,558.46L675.65,557.85L672.92,555.10L671.77,554.64L668.79,554.76L666.26,553.98L665.85,553.64L665.73,553.12L665.88,552.58L665.88,552.00L665.29,551.34L664.84,551.26L663.55,551.42L663.01,551.38L662.38,551.10L660.63,549.97L656.81,549.24L655.28,548.12L654.92,545.49L654.24,542.57L652.69,540.06L650.75,538.22L647.84,536.77L645.86,534.94L644.88,534.37L643.79,534.58L642.86,535.43L642.10,536.34L641.53,536.72L640.70,536.04L638.89,533.24L637.98,532.31L637.45,532.15L636.61,532.34L636.20,532.29L635.66,531.90L634.65,530.92L634.11,530.55L633.10,530.29L629.23,530.73L628.42,531.06L627.43,531.46L626.64,531.23L624.64,531.67L623.75,531.68L618.49,530.19L615.47,528.57L614.72,528.39L613.75,529.07L612.07,531.57L611.14,532.44L609.98,532.63L609.16,532.06L608.39,531.20L607.41,530.53L606.57,530.45L604.38,530.90L603.56,531.29L602.47,532.52L603.12,533.27L604.37,534.03L605.02,535.28L604.58,536.04L603.59,536.24L602.45,536.25L601.60,536.43L600.49,537.51L598.73,540.10L597.57,541.11L596.30,541.57L595.31,541.38L594.43,540.74L593.55,539.83L592.54,539.07L591.70,538.94L590.78,539.00L589.57,538.81L588.71,538.19L583.92,532.45L583.08,532.30L581.04,532.63L579.88,532.45L579.38,532.49L578.83,532.80L577.97,533.87L577.35,534.45L576.08,534.91L574.89,534.61L570.33,532.28L569.49,532.47L569.50,533.90L566.72,534.01L564.51,533.17L563.87,533.18L563.32,533.60L563.12,534.11L563.00,534.88L562.72,536.06L562.34,537.20L562.07,537.57L557.91,537.94L557.09,538.40L555.91,539.81L555.38,540.30L554.20,540.16L554.06,540.03L553.76,540.45L552.72,542.77L552.42,543.75L552.04,544.67L551.38,545.48L551.07,548.36L550.51,550.43L549.46,551.24L547.67,550.36L544.89,547.74L543.39,546.96L541.66,547.15L540.68,547.88L539.63,548.97L538.87,549.75L537.67,550.20L535.19,550.01L533.83,549.51L533.13,548.55L533.35,547.46L535.39,544.12L535.63,543.92L535.97,543.82L536.28,543.64L536.41,543.18L536.31,542.82L536.29,542.80L535.88,542.36L535.87,542.33L535.78,542.15L535.78,542.14L535.04,541.59L534.85,541.32L534.85,541.31L534.89,540.97L535.30,540.35L535.38,540.01L535.06,536.01L534.79,534.63L534.29,533.06L534.28,533.05L533.79,532.68L531.99,533.41L530.89,533.52L529.72,533.39L526.62,532.33L526.62,532.31L526.74,531.33L526.70,530.04L526.79,529.59L527.04,529.06L524.88,529.04L523.75,528.74L522.83,528.02L522.55,527.43L521.68,524.79L520.70,520.60L520.05,518.93L518.78,518.08L518.37,517.65L517.47,516.04L517.01,515.85L516.71,515.73L516.40,515.87L516.19,516.28L511.52,521.45L511.11,521.80L510.35,522.11L509.79,522.20L508.13,522.19L507.09,522.41L506.21,522.84L505.42,523.59L504.69,524.77L503.82,527.47L503.92,527.56L504.09,527.81L504.20,528.21L504.07,528.76L503.83,528.94L503.17,528.96L503.01,528.99L502.63,530.61L502.49,531.64L502.10,532.30L500.44,532.97L499.09,533.24L498.53,533.20L498.01,532.94L496.94,532.15L496.44,531.98L495.27,532.26L493.18,533.48L491.82,533.58L490.76,533.39L490.46,532.45L490.68,529.73L490.55,528.50L490.28,527.37L490.23,526.19L490.70,524.79L489.14,523.83L483.80,523.34Z" fill="url(#land)" fill-rule="evenodd" filter="url(#land-effect)" shape-rendering="geometricPrecision"/>
  </g>
  <path d="M68 73h56M96 45v56" stroke="#f6e5bc" stroke-opacity=".62" stroke-width="3" stroke-linecap="round"/><path d="M96 45 85 68h22Z" fill="#e9bc76"/>
</svg>
