<svg xmlns="http://www.w3.org/2000/svg" viewBox="0 0 1000 620" role="img" aria-label="Nema karta Francuske">
  <defs>
    <linearGradient id="sea" x1="0" y1="0" x2="1" y2="1"><stop offset="0" stop-color="#0b3e67"/><stop offset="1" stop-color="#071b45"/></linearGradient>
    <linearGradient id="land" x1="0" y1="0" x2=".8" y2="1"><stop offset="0" stop-color="#86c5ad"/><stop offset="1" stop-color="#3f867b"/></linearGradient>
    <pattern id="grid" width="100" height="62" patternUnits="userSpaceOnUse"><path d="M100 0H0V62" fill="none" stroke="#bdefff" stroke-opacity=".1" stroke-width="1"/></pattern>
    <filter id="shadow" x="-10%" y="-10%" width="120%" height="120%"><feDropShadow dx="0" dy="9" stdDeviation="10" flood-color="#00142f" flood-opacity=".52"/></filter>
  </defs>
  <rect width="1000" height="620" rx="34" fill="url(#sea)"/><rect width="1000" height="620" rx="34" fill="url(#grid)"/>
  <path d="M510.8,65.0L519.2,82.5L540.0,95.1L555.3,102.3L567.2,113.6L585.8,119.0L591.9,126.3L607.3,138.6L620.4,143.0L642.5,146.7L655.6,159.1L669.4,163.6L683.8,164.2L704.9,179.9L693.8,196.0L688.2,222.7L687.1,239.9L682.3,246.4L670.5,246.0L666.4,255.7L647.2,279.1L634.1,300.4L635.8,314.4L658.4,303.4L666.6,322.3L661.4,337.4L670.3,357.0L655.3,364.8L666.9,382.2L663.6,405.6L689.3,415.0L682.2,435.2L671.7,444.3L661.9,451.0L655.1,463.0L637.7,468.0L630.3,468.6L615.5,461.9L604.6,449.6L593.8,450.9L590.9,455.2L542.4,458.2L529.0,493.4L522.2,500.4L503.2,502.0L482.3,497.7L462.4,487.0L445.1,485.0L425.4,487.3L405.1,482.3L392.7,475.5L370.9,468.5L362.7,457.7L374.7,427.8L381.6,383.7L397.1,359.8L399.9,366.8L387.6,334.8L385.9,320.6L380.6,313.1L369.4,300.1L354.6,285.9L347.1,262.7L359.9,260.0L339.0,256.6L337.7,250.6L331.0,244.8L322.1,243.5L328.4,240.7L319.4,237.6L315.6,242.0L311.7,239.3L311.5,235.7L308.4,231.7L291.2,231.0L281.1,227.1L270.3,229.3L270.7,214.8L264.0,207.4L276.8,205.5L269.2,203.7L256.6,203.2L264.0,189.7L278.8,185.4L287.1,186.4L294.3,185.4L305.0,179.3L314.8,180.6L320.1,183.7L332.1,192.5L344.3,187.9L352.1,189.9L353.5,186.7L372.4,186.7L369.6,168.2L367.2,158.2L359.4,147.4L359.3,135.1L380.0,138.8L384.8,150.5L431.8,146.8L473.2,113.9L477.0,99.1L503.6,66.4L510.8,65.0ZM721.5,512.5L723.1,505.3L725.5,496.8L743.1,486.1L749.3,472.1L752.8,492.7L753.8,520.6L748.7,543.0L745.4,551.9L736.7,549.1L732.2,540.6L728.0,532.6L723.3,526.5L721.3,515.3L721.5,512.5Z" fill="url(#land)" stroke="#d3fff0" stroke-opacity=".64" stroke-width="3" stroke-linejoin="round" filter="url(#shadow)"/>
  <path d="M68 73h56M96 45v56" stroke="#d3fff0" stroke-opacity=".65" stroke-width="3" stroke-linecap="round"/><path d="M96 45 85 68h22Z" fill="#ffd96a"/>
</svg>
