<svg xmlns="http://www.w3.org/2000/svg" viewBox="0 0 96 96" aria-hidden="true">
  <defs>
    <linearGradient id="leader-ring" x1="13" y1="8" x2="83" y2="89" gradientUnits="userSpaceOnUse">
      <stop offset="0" stop-color="#38bdf8"/>
      <stop offset=".48" stop-color="#38ef7d"/>
      <stop offset="1" stop-color="#f5af19"/>
    </linearGradient>
    <radialGradient id="leader-face" cx="39%" cy="30%" r="70%">
      <stop offset="0" stop-color="#123b42"/>
      <stop offset=".58" stop-color="#092127"/>
      <stop offset="1" stop-color="#041014"/>
    </radialGradient>
    <linearGradient id="leader-gold" x1="28" y1="16" x2="67" y2="73" gradientUnits="userSpaceOnUse">
      <stop offset="0" stop-color="#fff7bf"/>
      <stop offset=".44" stop-color="#ffe08a"/>
      <stop offset="1" stop-color="#f5af19"/>
    </linearGradient>
    <linearGradient id="leader-cyan" x1="21" y1="35" x2="74" y2="77" gradientUnits="userSpaceOnUse">
      <stop offset="0" stop-color="#7dd3fc"/>
      <stop offset=".5" stop-color="#38bdf8"/>
      <stop offset="1" stop-color="#11998e"/>
    </linearGradient>
    <filter id="leader-shadow" x="-28%" y="-28%" width="156%" height="156%">
      <feDropShadow dx="0" dy="4" stdDeviation="3.2" flood-color="#000000" flood-opacity=".42"/>
    </filter>
    <filter id="leader-glow" x="-42%" y="-42%" width="184%" height="184%">
      <feGaussianBlur stdDeviation="2.6" result="blur"/>
      <feMerge>
        <feMergeNode in="blur"/>
        <feMergeNode in="SourceGraphic"/>
      </feMerge>
    </filter>
  </defs>

  <circle cx="48" cy="48" r="43" fill="#06151a" opacity=".92"/>
  <circle cx="48" cy="48" r="40.5" fill="none" stroke="url(#leader-ring)" stroke-width="5.5" filter="url(#leader-glow)"/>
  <circle cx="48" cy="48" r="33.5" fill="url(#leader-face)" stroke="#d9ffe8" stroke-opacity=".55" stroke-width="2"/>

  <g opacity=".34" fill="none" stroke="#7dd3fc" stroke-linecap="round" stroke-linejoin="round" stroke-width="2">
    <path d="M19 48h58"/>
    <path d="M48 16c-8.8 9.2-13.2 19.8-13.2 32S39.2 70.8 48 80"/>
    <path d="M48 16c8.8 9.2 13.2 19.8 13.2 32S56.8 70.8 48 80"/>
  </g>

  <g filter="url(#leader-shadow)">
    <rect x="39" y="43" width="18" height="34" rx="5" fill="url(#leader-gold)" stroke="#fff7bf" stroke-width="2.3"/>
    <rect x="19" y="55" width="18" height="22" rx="5" fill="url(#leader-cyan)" stroke="#d9ffe8" stroke-opacity=".72" stroke-width="2.3"/>
    <rect x="59" y="51" width="18" height="26" rx="5" fill="#0c3f3a" stroke="#38ef7d" stroke-width="2.3"/>
    <path d="M28 63v6M48 51v16M68 59v9" stroke="#06151a" stroke-opacity=".36" stroke-width="2.2" stroke-linecap="round"/>
  </g>

  <g filter="url(#leader-glow)">
    <path d="M48 15.5 52.7 30l15.2.1-12.2 8.9 4.5 14.7L48 45l-12.2 8.7L40.3 39 28.1 30.1l15.2-.1L48 15.5Z" fill="url(#leader-gold)" stroke="#fff7bf" stroke-width="1.7" stroke-linejoin="round"/>
    <circle cx="48" cy="36" r="4.8" fill="#06151a" stroke="#d9ffe8" stroke-width="1.8"/>
  </g>

  <path d="M21 80h54" stroke="#d9ffe8" stroke-opacity=".25" stroke-width="3" stroke-linecap="round"/>
</svg>
