<svg xmlns="http://www.w3.org/2000/svg" viewBox="0 0 96 96" aria-hidden="true">
  <g fill="none" stroke="#000" stroke-linecap="round" stroke-linejoin="round">
    <circle cx="48" cy="48" r="38" stroke-width="8"/>
    <path d="M18 47h60" stroke-width="5" opacity="0.92"/>
    <path d="M48 11c-12 12-18 24-18 37s6 25 18 37c12-12 18-24 18-37s-6-25-18-37Z" stroke-width="5"/>
    <path d="M31 22c6 5 14 7 24 5 6-1 11 1 15 5M24 60c9-4 17-3 24 3 8 7 17 7 26 1" stroke-width="5" opacity="0.82"/>
  </g>
  <path fill="#000" d="M33 36c5-7 11-8 17-4 3 2 5 6 3 10-2 5-8 6-13 4-5-2-9-3-13 1 0-4 2-8 6-11Zm31 5c6 0 10 4 10 10 0 5-3 8-8 9-5 1-9-2-9-7 0-4 2-8 7-12Zm-22 21c7-2 14 1 18 8-7 5-16 5-23 1 0-4 2-7 5-9Z" opacity="0.95"/>
</svg>
