<svg xmlns="http://www.w3.org/2000/svg" viewBox="0 0 96 96" aria-hidden="true">
  <defs>
    <linearGradient id="league-ring" x1="13" y1="8" x2="83" y2="89" gradientUnits="userSpaceOnUse">
      <stop offset="0" stop-color="#38bdf8"/>
      <stop offset=".46" stop-color="#38ef7d"/>
      <stop offset="1" stop-color="#f5af19"/>
    </linearGradient>
    <radialGradient id="league-face" cx="38%" cy="28%" r="72%">
      <stop offset="0" stop-color="#153f42"/>
      <stop offset=".58" stop-color="#092127"/>
      <stop offset="1" stop-color="#041014"/>
    </radialGradient>
    <linearGradient id="league-shield" x1="24" y1="14" x2="72" y2="83" gradientUnits="userSpaceOnUse">
      <stop offset="0" stop-color="#7dd3fc"/>
      <stop offset=".36" stop-color="#38ef7d"/>
      <stop offset="1" stop-color="#11998e"/>
    </linearGradient>
    <linearGradient id="league-gold" x1="27" y1="13" x2="74" y2="82" gradientUnits="userSpaceOnUse">
      <stop offset="0" stop-color="#fff7bf"/>
      <stop offset=".42" stop-color="#ffe08a"/>
      <stop offset="1" stop-color="#f5af19"/>
    </linearGradient>
    <linearGradient id="league-purple" x1="21" y1="22" x2="76" y2="81" gradientUnits="userSpaceOnUse">
      <stop offset="0" stop-color="#f0abfc"/>
      <stop offset=".5" stop-color="#c084fc"/>
      <stop offset="1" stop-color="#7c3aed"/>
    </linearGradient>
    <filter id="league-shadow" x="-28%" y="-28%" width="156%" height="156%">
      <feDropShadow dx="0" dy="4" stdDeviation="3.2" flood-color="#000000" flood-opacity=".42"/>
    </filter>
    <filter id="league-glow" x="-42%" y="-42%" width="184%" height="184%">
      <feGaussianBlur stdDeviation="2.6" result="blur"/>
      <feMerge>
        <feMergeNode in="blur"/>
        <feMergeNode in="SourceGraphic"/>
      </feMerge>
    </filter>
  </defs>

  <circle cx="48" cy="48" r="43" fill="#06151a" opacity=".92"/>
  <circle cx="48" cy="48" r="40.5" fill="none" stroke="url(#league-ring)" stroke-width="5.5" filter="url(#league-glow)"/>
  <circle cx="48" cy="48" r="33.5" fill="url(#league-face)" stroke="#d9ffe8" stroke-opacity=".55" stroke-width="2"/>

  <g opacity=".34" fill="none" stroke="#7dd3fc" stroke-linecap="round" stroke-linejoin="round" stroke-width="2">
    <path d="M19 48h58"/>
    <path d="M48 16c-8.8 9.2-13.2 19.8-13.2 32S39.2 70.8 48 80"/>
    <path d="M48 16c8.8 9.2 13.2 19.8 13.2 32S56.8 70.8 48 80"/>
  </g>

  <g filter="url(#league-shadow)">
    <path d="M48 14 72 25.8v22.9C72 64.2 62.6 75 48 82 33.4 75 24 64.2 24 48.7V25.8L48 14Z" fill="#06151a" stroke="url(#league-gold)" stroke-width="3.2" stroke-linejoin="round"/>
    <path d="M48 20.2 66 29.2v18.6c0 11.9-6.8 20.5-18 26.2-11.2-5.7-18-14.3-18-26.2V29.2l18-9Z" fill="url(#league-shield)" stroke="#d9ffe8" stroke-opacity=".58" stroke-width="2"/>
    <path d="M34 59h8V44h-8v15Zm10 0h8V36h-8v23Zm10 0h8V49h-8v10Z" fill="url(#league-gold)" stroke="#fff7bf" stroke-width="1.6" stroke-linejoin="round"/>
    <path d="M32 65h32" stroke="#06151a" stroke-opacity=".4" stroke-width="3" stroke-linecap="round"/>
  </g>

  <g filter="url(#league-glow)">
    <path d="M48 23.5 52.1 36h13.2l-10.7 7.8 4.1 12.6L48 48.6l-10.7 7.8 4.1-12.6L30.7 36h13.2L48 23.5Z" fill="url(#league-gold)" stroke="#fff7bf" stroke-width="1.4" stroke-linejoin="round"/>
    <path d="M21 42c-4.3 6-4.8 14.8 2.2 22.8M75 42c4.3 6 4.8 14.8-2.2 22.8" fill="none" stroke="url(#league-purple)" stroke-width="3" stroke-linecap="round"/>
    <path d="M17.5 51c3.4.2 6.4 1.3 9 3.3M78.5 51c-3.4.2-6.4 1.3-9 3.3" fill="none" stroke="#fff7bf" stroke-width="2.2" stroke-linecap="round"/>
  </g>
</svg>
