<svg xmlns="http://www.w3.org/2000/svg" viewBox="0 0 96 96" aria-hidden="true">
  <defs>
    <linearGradient id="settings-ring" x1="13" y1="8" x2="83" y2="89" gradientUnits="userSpaceOnUse">
      <stop offset="0" stop-color="#38bdf8"/>
      <stop offset=".48" stop-color="#38ef7d"/>
      <stop offset="1" stop-color="#f5af19"/>
    </linearGradient>
    <radialGradient id="settings-face" cx="39%" cy="30%" r="70%">
      <stop offset="0" stop-color="#123b42"/>
      <stop offset=".58" stop-color="#092127"/>
      <stop offset="1" stop-color="#041014"/>
    </radialGradient>
    <linearGradient id="settings-cyan" x1="23" y1="20" x2="73" y2="78" gradientUnits="userSpaceOnUse">
      <stop offset="0" stop-color="#7dd3fc"/>
      <stop offset=".5" stop-color="#38bdf8"/>
      <stop offset="1" stop-color="#11998e"/>
    </linearGradient>
    <linearGradient id="settings-gold" x1="31" y1="19" x2="69" y2="75" gradientUnits="userSpaceOnUse">
      <stop offset="0" stop-color="#fff7bf"/>
      <stop offset=".42" stop-color="#ffe08a"/>
      <stop offset="1" stop-color="#f5af19"/>
    </linearGradient>
    <filter id="settings-shadow" x="-28%" y="-28%" width="156%" height="156%">
      <feDropShadow dx="0" dy="4" stdDeviation="3.2" flood-color="#000000" flood-opacity=".42"/>
    </filter>
    <filter id="settings-glow" x="-42%" y="-42%" width="184%" height="184%">
      <feGaussianBlur stdDeviation="2.6" result="blur"/>
      <feMerge>
        <feMergeNode in="blur"/>
        <feMergeNode in="SourceGraphic"/>
      </feMerge>
    </filter>
  </defs>

  <circle cx="48" cy="48" r="43" fill="#06151a" opacity=".92"/>
  <circle cx="48" cy="48" r="40.5" fill="none" stroke="url(#settings-ring)" stroke-width="5.5" filter="url(#settings-glow)"/>
  <circle cx="48" cy="48" r="33.5" fill="url(#settings-face)" stroke="#d9ffe8" stroke-opacity=".55" stroke-width="2"/>

  <g opacity=".32" fill="none" stroke="#7dd3fc" stroke-linecap="round" stroke-linejoin="round" stroke-width="2">
    <path d="M19 48h58"/>
    <path d="M48 16c-8.8 9.2-13.2 19.8-13.2 32S39.2 70.8 48 80"/>
    <path d="M48 16c8.8 9.2 13.2 19.8 13.2 32S56.8 70.8 48 80"/>
  </g>

  <g filter="url(#settings-shadow)">
    <path d="M48 20 55 25.2l8.7-1.1 3.3 8.1 7.8 4-2 8.5 4.7 7.4-5.6 6.7.3 8.8-8.5 2.3-5.1 7.1-8.3-3-8.3 3-5.1-7.1-8.5-2.3.3-8.8-5.6-6.7 4.7-7.4-2-8.5 7.8-4 3.3-8.1 8.7 1.1L48 20Z" fill="url(#settings-cyan)" stroke="#d9ffe8" stroke-opacity=".78" stroke-width="2.5" stroke-linejoin="round"/>
    <circle cx="48" cy="50" r="15" fill="#06151a" stroke="url(#settings-gold)" stroke-width="4"/>
    <circle cx="48" cy="50" r="5.5" fill="url(#settings-gold)" stroke="#fff7bf" stroke-width="1.6"/>
  </g>

  <g filter="url(#settings-glow)" fill="none" stroke-linecap="round" stroke-linejoin="round">
    <path d="M27 27h18M55 27h14" stroke="#38ef7d" stroke-width="3.2"/>
    <circle cx="50" cy="27" r="4.6" fill="url(#settings-gold)" stroke="#fff7bf" stroke-width="1.5"/>
    <path d="M27 70h12M49 70h20" stroke="#38ef7d" stroke-width="3.2"/>
    <circle cx="44" cy="70" r="4.6" fill="url(#settings-gold)" stroke="#fff7bf" stroke-width="1.5"/>
  </g>
</svg>
