<svg xmlns="http://www.w3.org/2000/svg" viewBox="0 0 96 96" aria-hidden="true">
  <defs>
    <linearGradient id="trophy-room-ring" x1="13" y1="8" x2="83" y2="89" gradientUnits="userSpaceOnUse">
      <stop offset="0" stop-color="#38bdf8"/>
      <stop offset=".48" stop-color="#38ef7d"/>
      <stop offset="1" stop-color="#f5af19"/>
    </linearGradient>
    <radialGradient id="trophy-room-face" cx="39%" cy="30%" r="70%">
      <stop offset="0" stop-color="#123b42"/>
      <stop offset=".58" stop-color="#092127"/>
      <stop offset="1" stop-color="#041014"/>
    </radialGradient>
    <linearGradient id="trophy-room-gold" x1="25" y1="15" x2="72" y2="79" gradientUnits="userSpaceOnUse">
      <stop offset="0" stop-color="#fff7bf"/>
      <stop offset=".42" stop-color="#ffe08a"/>
      <stop offset="1" stop-color="#f5af19"/>
    </linearGradient>
    <linearGradient id="trophy-room-green" x1="21" y1="24" x2="74" y2="80" gradientUnits="userSpaceOnUse">
      <stop offset="0" stop-color="#d9ffe8"/>
      <stop offset=".48" stop-color="#38ef7d"/>
      <stop offset="1" stop-color="#11998e"/>
    </linearGradient>
    <linearGradient id="trophy-room-cyan" x1="19" y1="20" x2="75" y2="79" gradientUnits="userSpaceOnUse">
      <stop offset="0" stop-color="#7dd3fc"/>
      <stop offset=".5" stop-color="#38bdf8"/>
      <stop offset="1" stop-color="#11998e"/>
    </linearGradient>
    <filter id="trophy-room-shadow" x="-28%" y="-28%" width="156%" height="156%">
      <feDropShadow dx="0" dy="4" stdDeviation="3.2" flood-color="#000000" flood-opacity=".42"/>
    </filter>
    <filter id="trophy-room-glow" x="-42%" y="-42%" width="184%" height="184%">
      <feGaussianBlur stdDeviation="2.6" result="blur"/>
      <feMerge>
        <feMergeNode in="blur"/>
        <feMergeNode in="SourceGraphic"/>
      </feMerge>
    </filter>
  </defs>

  <circle cx="48" cy="48" r="43" fill="#06151a" opacity=".92"/>
  <circle cx="48" cy="48" r="40.5" fill="none" stroke="url(#trophy-room-ring)" stroke-width="5.5" filter="url(#trophy-room-glow)"/>
  <circle cx="48" cy="48" r="33.5" fill="url(#trophy-room-face)" stroke="#d9ffe8" stroke-opacity=".55" stroke-width="2"/>

  <g opacity=".32" fill="none" stroke="#7dd3fc" stroke-linecap="round" stroke-linejoin="round" stroke-width="2">
    <path d="M19 48h58"/>
    <path d="M48 16c-8.8 9.2-13.2 19.8-13.2 32S39.2 70.8 48 80"/>
    <path d="M48 16c8.8 9.2 13.2 19.8 13.2 32S56.8 70.8 48 80"/>
  </g>

  <g filter="url(#trophy-room-shadow)">
    <rect x="19" y="31" width="58" height="45" rx="8" fill="#06151a" stroke="url(#trophy-room-cyan)" stroke-width="3"/>
    <path d="M25 45h46M25 62h46" stroke="#d9ffe8" stroke-opacity=".25" stroke-width="2.5" stroke-linecap="round"/>
    <path d="M35 27h26v9c0 9.6-5.2 16.2-13 18.4C40.2 52.2 35 45.6 35 36v-9Z" fill="url(#trophy-room-gold)" stroke="#fff7bf" stroke-width="2" stroke-linejoin="round"/>
    <path d="M35 34H25c0 8.2 4.7 13.6 12 14.2M61 34h10c0 8.2-4.7 13.6-12 14.2" fill="none" stroke="url(#trophy-room-gold)" stroke-width="4" stroke-linecap="round" stroke-linejoin="round"/>
    <path d="M48 54v8M39 67h18" stroke="url(#trophy-room-gold)" stroke-width="4" stroke-linecap="round"/>
  </g>

  <g filter="url(#trophy-room-glow)">
    <circle cx="28.5" cy="58" r="5.5" fill="url(#trophy-room-green)" stroke="#d9ffe8" stroke-width="1.5"/>
    <path d="M25 64h7l-2.2 8-1.3-2-1.5 2-2-8Z" fill="url(#trophy-room-green)" stroke="#d9ffe8" stroke-width="1.2" stroke-linejoin="round"/>
    <circle cx="67.5" cy="58" r="5.5" fill="url(#trophy-room-gold)" stroke="#fff7bf" stroke-width="1.5"/>
    <path d="M64 64h7l-2.2 8-1.3-2-1.5 2-2-8Z" fill="url(#trophy-room-gold)" stroke="#fff7bf" stroke-width="1.2" stroke-linejoin="round"/>
    <path d="M48 20 51.1 29.5H61l-8 5.8 3 9.5-8-5.8-8 5.8 3-9.5-8-5.8h9.9L48 20Z" fill="#fff7bf" stroke="#f5af19" stroke-width="1.2" stroke-linejoin="round"/>
  </g>
</svg>
