<svg xmlns="http://www.w3.org/2000/svg" viewBox="0 0 96 96" aria-hidden="true">
  <defs>
    <linearGradient id="multi-ring" x1="13" y1="8" x2="83" y2="89" gradientUnits="userSpaceOnUse">
      <stop offset="0" stop-color="#38bdf8"/>
      <stop offset=".48" stop-color="#38ef7d"/>
      <stop offset="1" stop-color="#f5af19"/>
    </linearGradient>
    <radialGradient id="multi-face" cx="39%" cy="30%" r="70%">
      <stop offset="0" stop-color="#123b42"/>
      <stop offset=".58" stop-color="#092127"/>
      <stop offset="1" stop-color="#041014"/>
    </radialGradient>
    <linearGradient id="multi-cyan" x1="18" y1="18" x2="76" y2="79" gradientUnits="userSpaceOnUse">
      <stop offset="0" stop-color="#7dd3fc"/>
      <stop offset=".5" stop-color="#38bdf8"/>
      <stop offset="1" stop-color="#11998e"/>
    </linearGradient>
    <linearGradient id="multi-green" x1="26" y1="22" x2="72" y2="77" gradientUnits="userSpaceOnUse">
      <stop offset="0" stop-color="#d9ffe8"/>
      <stop offset=".5" stop-color="#38ef7d"/>
      <stop offset="1" stop-color="#11998e"/>
    </linearGradient>
    <linearGradient id="multi-gold" x1="30" y1="18" x2="71" y2="76" gradientUnits="userSpaceOnUse">
      <stop offset="0" stop-color="#fff7bf"/>
      <stop offset=".42" stop-color="#ffe08a"/>
      <stop offset="1" stop-color="#f5af19"/>
    </linearGradient>
    <filter id="multi-shadow" x="-28%" y="-28%" width="156%" height="156%">
      <feDropShadow dx="0" dy="4" stdDeviation="3.2" flood-color="#000000" flood-opacity=".42"/>
    </filter>
    <filter id="multi-glow" x="-42%" y="-42%" width="184%" height="184%">
      <feGaussianBlur stdDeviation="2.6" result="blur"/>
      <feMerge>
        <feMergeNode in="blur"/>
        <feMergeNode in="SourceGraphic"/>
      </feMerge>
    </filter>
  </defs>

  <circle cx="48" cy="48" r="43" fill="#06151a" opacity=".92"/>
  <circle cx="48" cy="48" r="40.5" fill="none" stroke="url(#multi-ring)" stroke-width="5.5" filter="url(#multi-glow)"/>
  <circle cx="48" cy="48" r="33.5" fill="url(#multi-face)" stroke="#d9ffe8" stroke-opacity=".55" stroke-width="2"/>

  <g opacity=".58" fill="none" stroke="#7dd3fc" stroke-linecap="round" stroke-linejoin="round" stroke-width="2">
    <path d="M18 48h60"/>
    <path d="M48 15.8c-9.2 9-13.8 19.7-13.8 32.2S38.8 71.2 48 80.2"/>
    <path d="M48 15.8c9.2 9 13.8 19.7 13.8 32.2S57.2 71.2 48 80.2"/>
    <path d="M24 34.3c10.8 5 37.2 5 48 0"/>
    <path d="M24 61.7c10.8-5 37.2-5 48 0"/>
  </g>

  <g filter="url(#multi-shadow)">
    <circle cx="48" cy="41" r="10.5" fill="url(#multi-gold)" stroke="#fff7bf" stroke-width="2"/>
    <path d="M31.5 70c3.1-10.5 9.9-15.9 16.5-15.9S61.4 59.5 64.5 70" fill="none" stroke="url(#multi-gold)" stroke-width="7.4" stroke-linecap="round"/>
    <circle cx="29" cy="48" r="8" fill="url(#multi-cyan)" stroke="#d9ffe8" stroke-opacity=".8" stroke-width="1.8"/>
    <path d="M17.5 72c2.4-8.3 7.2-12.4 11.5-12.4S38.2 63.7 40.5 72" fill="none" stroke="url(#multi-cyan)" stroke-width="6" stroke-linecap="round"/>
    <circle cx="67" cy="48" r="8" fill="url(#multi-green)" stroke="#d9ffe8" stroke-opacity=".8" stroke-width="1.8"/>
    <path d="M55.5 72c2.4-8.3 7.2-12.4 11.5-12.4S76.2 63.7 78.5 72" fill="none" stroke="url(#multi-green)" stroke-width="6" stroke-linecap="round"/>
  </g>

  <g filter="url(#multi-glow)">
    <path d="M67.5 19.5 73 35.6l15.4 5.4-15 6-5.7 15.8-6.3-15.7-15.8-6.1 16.1-5.2 5.8-16.3Z" fill="url(#multi-green)" stroke="#d9ffe8" stroke-width="1.7" stroke-linejoin="round"/>
    <circle cx="67.6" cy="41" r="3.8" fill="#06151a" stroke="#fff7bf" stroke-width="1.6"/>
  </g>
</svg>
