<svg xmlns="http://www.w3.org/2000/svg" viewBox="0 0 96 96" aria-hidden="true">
  <defs>
    <linearGradient id="solo-ring" x1="13" y1="8" x2="83" y2="89" gradientUnits="userSpaceOnUse">
      <stop offset="0" stop-color="#38bdf8"/>
      <stop offset=".48" stop-color="#38ef7d"/>
      <stop offset="1" stop-color="#f5af19"/>
    </linearGradient>
    <radialGradient id="solo-face" cx="39%" cy="30%" r="70%">
      <stop offset="0" stop-color="#123b42"/>
      <stop offset=".58" stop-color="#092127"/>
      <stop offset="1" stop-color="#041014"/>
    </radialGradient>
    <linearGradient id="solo-gold" x1="28" y1="18" x2="69" y2="76" gradientUnits="userSpaceOnUse">
      <stop offset="0" stop-color="#fff7bf"/>
      <stop offset=".42" stop-color="#ffe08a"/>
      <stop offset="1" stop-color="#f5af19"/>
    </linearGradient>
    <linearGradient id="solo-green" x1="22" y1="25" x2="72" y2="78" gradientUnits="userSpaceOnUse">
      <stop offset="0" stop-color="#d9ffe8"/>
      <stop offset=".48" stop-color="#38ef7d"/>
      <stop offset="1" stop-color="#11998e"/>
    </linearGradient>
    <linearGradient id="solo-cyan" x1="21" y1="21" x2="74" y2="77" gradientUnits="userSpaceOnUse">
      <stop offset="0" stop-color="#7dd3fc"/>
      <stop offset=".5" stop-color="#38bdf8"/>
      <stop offset="1" stop-color="#11998e"/>
    </linearGradient>
    <filter id="solo-shadow" x="-28%" y="-28%" width="156%" height="156%">
      <feDropShadow dx="0" dy="4" stdDeviation="3.2" flood-color="#000000" flood-opacity=".42"/>
    </filter>
    <filter id="solo-glow" x="-42%" y="-42%" width="184%" height="184%">
      <feGaussianBlur stdDeviation="2.6" result="blur"/>
      <feMerge>
        <feMergeNode in="blur"/>
        <feMergeNode in="SourceGraphic"/>
      </feMerge>
    </filter>
  </defs>

  <circle cx="48" cy="48" r="43" fill="#06151a" opacity=".92"/>
  <circle cx="48" cy="48" r="40.5" fill="none" stroke="url(#solo-ring)" stroke-width="5.5" filter="url(#solo-glow)"/>
  <circle cx="48" cy="48" r="33.5" fill="url(#solo-face)" stroke="#d9ffe8" stroke-opacity=".55" stroke-width="2"/>

  <g opacity=".36" fill="none" stroke="#7dd3fc" stroke-linecap="round" stroke-linejoin="round" stroke-width="2">
    <path d="M19 48h58"/>
    <path d="M48 16c-8.8 9.2-13.2 19.8-13.2 32S39.2 70.8 48 80"/>
    <path d="M48 16c8.8 9.2 13.2 19.8 13.2 32S56.8 70.8 48 80"/>
    <path d="M25 34c10.4 4.7 35.6 4.7 46 0"/>
  </g>

  <g filter="url(#solo-shadow)">
    <path d="M21 68c7.2-5.7 14.8-8.6 22.6-8.6 9.9 0 19.8 3.1 29.6 9.4" fill="none" stroke="url(#solo-cyan)" stroke-width="6" stroke-linecap="round"/>
    <path d="M31 76c4-7.7 10.1-11.6 17-11.6S61 68.3 65 76" fill="none" stroke="url(#solo-gold)" stroke-width="8" stroke-linecap="round"/>
    <circle cx="48" cy="42" r="13" fill="url(#solo-gold)" stroke="#fff7bf" stroke-width="2.2"/>
    <path d="M38 42c5.7-5.6 12.4-7.2 20-4.8" fill="none" stroke="#06151a" stroke-opacity=".32" stroke-width="3" stroke-linecap="round"/>
  </g>

  <g filter="url(#solo-glow)">
    <path d="M63.5 22.5 70 41.2l17.8 6-17.2 7.1-6.6 18.3-7.4-18.2-18.4-7.2 18.9-6.2 6.4-18.5Z" fill="url(#solo-green)" stroke="#d9ffe8" stroke-width="1.8" stroke-linejoin="round"/>
    <circle cx="64" cy="47" r="4.2" fill="#06151a" stroke="#fff7bf" stroke-width="1.8"/>
  </g>

  <path d="M24 23c4.4-2.6 8.8-3.5 13.2-2.8" fill="none" stroke="#f5af19" stroke-opacity=".75" stroke-width="3" stroke-linecap="round"/>
</svg>
