<svg xmlns="http://www.w3.org/2000/svg" viewBox="0 0 96 96" aria-hidden="true">
  <defs>
    <linearGradient id="invite-ring" x1="13" y1="8" x2="83" y2="89" gradientUnits="userSpaceOnUse">
      <stop offset="0" stop-color="#38bdf8"/>
      <stop offset=".48" stop-color="#38ef7d"/>
      <stop offset="1" stop-color="#f5af19"/>
    </linearGradient>
    <radialGradient id="invite-face" cx="39%" cy="30%" r="70%">
      <stop offset="0" stop-color="#123b42"/>
      <stop offset=".58" stop-color="#092127"/>
      <stop offset="1" stop-color="#041014"/>
    </radialGradient>
    <linearGradient id="invite-gold" x1="27" y1="18" x2="72" y2="77" gradientUnits="userSpaceOnUse">
      <stop offset="0" stop-color="#fff7bf"/>
      <stop offset=".42" stop-color="#ffe08a"/>
      <stop offset="1" stop-color="#f5af19"/>
    </linearGradient>
    <linearGradient id="invite-green" x1="21" y1="23" x2="75" y2="80" gradientUnits="userSpaceOnUse">
      <stop offset="0" stop-color="#d9ffe8"/>
      <stop offset=".48" stop-color="#38ef7d"/>
      <stop offset="1" stop-color="#11998e"/>
    </linearGradient>
    <linearGradient id="invite-cyan" x1="18" y1="20" x2="76" y2="80" gradientUnits="userSpaceOnUse">
      <stop offset="0" stop-color="#7dd3fc"/>
      <stop offset=".5" stop-color="#38bdf8"/>
      <stop offset="1" stop-color="#11998e"/>
    </linearGradient>
    <filter id="invite-shadow" x="-28%" y="-28%" width="156%" height="156%">
      <feDropShadow dx="0" dy="4" stdDeviation="3.2" flood-color="#000000" flood-opacity=".42"/>
    </filter>
    <filter id="invite-glow" x="-42%" y="-42%" width="184%" height="184%">
      <feGaussianBlur stdDeviation="2.6" result="blur"/>
      <feMerge>
        <feMergeNode in="blur"/>
        <feMergeNode in="SourceGraphic"/>
      </feMerge>
    </filter>
  </defs>

  <circle cx="48" cy="48" r="43" fill="#06151a" opacity=".92"/>
  <circle cx="48" cy="48" r="40.5" fill="none" stroke="url(#invite-ring)" stroke-width="5.5" filter="url(#invite-glow)"/>
  <circle cx="48" cy="48" r="33.5" fill="url(#invite-face)" stroke="#d9ffe8" stroke-opacity=".55" stroke-width="2"/>

  <g opacity=".38" fill="none" stroke="#7dd3fc" stroke-linecap="round" stroke-linejoin="round" stroke-width="2">
    <path d="M19 48h58"/>
    <path d="M48 16c-8.8 9.2-13.2 19.8-13.2 32S39.2 70.8 48 80"/>
    <path d="M48 16c8.8 9.2 13.2 19.8 13.2 32S56.8 70.8 48 80"/>
  </g>

  <g filter="url(#invite-shadow)">
    <path d="M20 34.5 48 18l28 16.5v31L48 82 20 65.5v-31Z" fill="#06151a" stroke="url(#invite-gold)" stroke-width="3" stroke-linejoin="round"/>
    <path d="M20 34.5 48 52l28-17.5M48 52v30" fill="none" stroke="#d9ffe8" stroke-opacity=".35" stroke-width="2.5" stroke-linecap="round" stroke-linejoin="round"/>
    <path d="M28 40.2 48 52.5l20-12.3" fill="none" stroke="url(#invite-cyan)" stroke-width="4" stroke-linecap="round" stroke-linejoin="round"/>
  </g>

  <g filter="url(#invite-glow)">
    <circle cx="41" cy="48" r="8" fill="url(#invite-gold)" stroke="#fff7bf" stroke-width="1.8"/>
    <path d="M28.5 70c2.3-8.4 7.6-12.7 12.5-12.7S51.2 61.6 53.5 70" fill="none" stroke="url(#invite-gold)" stroke-width="6.5" stroke-linecap="round"/>
    <circle cx="58" cy="50" r="6.5" fill="url(#invite-green)" stroke="#d9ffe8" stroke-width="1.6"/>
    <path d="M49.5 70c1.7-6.6 5.3-9.9 8.5-9.9s6.8 3.3 8.5 9.9" fill="none" stroke="url(#invite-green)" stroke-width="5.2" stroke-linecap="round"/>
  </g>

  <g filter="url(#invite-glow)">
    <circle cx="70" cy="25" r="9" fill="#ff416c" stroke="#ffd1dc" stroke-width="1.7"/>
    <path d="M70 20.4v9.2M65.4 25h9.2" stroke="#fff" stroke-width="2.4" stroke-linecap="round"/>
  </g>

  <path d="M25 78c6.5 4.2 14.3 6.2 23.2 6.2 8.8 0 16.4-2 22.9-6.1" fill="none" stroke="#d9ffe8" stroke-opacity=".22" stroke-width="3" stroke-linecap="round"/>
</svg>
