<svg xmlns="http://www.w3.org/2000/svg" viewBox="0 0 96 96" aria-hidden="true">
  <defs>
    <linearGradient id="tournament-ring" x1="13" y1="8" x2="83" y2="89" gradientUnits="userSpaceOnUse">
      <stop offset="0" stop-color="#38bdf8"/>
      <stop offset=".48" stop-color="#38ef7d"/>
      <stop offset="1" stop-color="#f5af19"/>
    </linearGradient>
    <radialGradient id="tournament-face" cx="39%" cy="30%" r="70%">
      <stop offset="0" stop-color="#123b42"/>
      <stop offset=".58" stop-color="#092127"/>
      <stop offset="1" stop-color="#041014"/>
    </radialGradient>
    <linearGradient id="tournament-gold" x1="24" y1="18" x2="72" y2="76" gradientUnits="userSpaceOnUse">
      <stop offset="0" stop-color="#fff7bf"/>
      <stop offset=".42" stop-color="#ffe08a"/>
      <stop offset="1" stop-color="#f5af19"/>
    </linearGradient>
    <linearGradient id="tournament-cyan" x1="21" y1="22" x2="75" y2="79" gradientUnits="userSpaceOnUse">
      <stop offset="0" stop-color="#7dd3fc"/>
      <stop offset=".52" stop-color="#38bdf8"/>
      <stop offset="1" stop-color="#11998e"/>
    </linearGradient>
    <linearGradient id="tournament-purple" x1="20" y1="19" x2="77" y2="79" gradientUnits="userSpaceOnUse">
      <stop offset="0" stop-color="#f0abfc"/>
      <stop offset=".5" stop-color="#c084fc"/>
      <stop offset="1" stop-color="#7c3aed"/>
    </linearGradient>
    <filter id="tournament-shadow" x="-28%" y="-28%" width="156%" height="156%">
      <feDropShadow dx="0" dy="4" stdDeviation="3.2" flood-color="#000000" flood-opacity=".42"/>
    </filter>
    <filter id="tournament-glow" x="-42%" y="-42%" width="184%" height="184%">
      <feGaussianBlur stdDeviation="2.6" result="blur"/>
      <feMerge>
        <feMergeNode in="blur"/>
        <feMergeNode in="SourceGraphic"/>
      </feMerge>
    </filter>
  </defs>

  <circle cx="48" cy="48" r="43" fill="#06151a" opacity=".92"/>
  <circle cx="48" cy="48" r="40.5" fill="none" stroke="url(#tournament-ring)" stroke-width="5.5" filter="url(#tournament-glow)"/>
  <circle cx="48" cy="48" r="33.5" fill="url(#tournament-face)" stroke="#d9ffe8" stroke-opacity=".55" stroke-width="2"/>

  <g opacity=".34" fill="none" stroke="#7dd3fc" stroke-linecap="round" stroke-linejoin="round" stroke-width="2">
    <path d="M19 48h58"/>
    <path d="M48 16c-8.8 9.2-13.2 19.8-13.2 32S39.2 70.8 48 80"/>
    <path d="M48 16c8.8 9.2 13.2 19.8 13.2 32S56.8 70.8 48 80"/>
  </g>

  <g filter="url(#tournament-shadow)">
    <path d="M26 37h12v10H26v11h12v10H18V27h20v10H26Zm44 0H58v10h12v11H58v10h20V27H58v10h12Z" fill="none" stroke="url(#tournament-cyan)" stroke-width="4.2" stroke-linecap="round" stroke-linejoin="round"/>
    <path d="M38 42h20M38 63h20" stroke="url(#tournament-purple)" stroke-width="4.2" stroke-linecap="round"/>
  </g>

  <g filter="url(#tournament-glow)">
    <path d="M27 31 38.5 44.6 48 26l9.5 18.6L69 31l-4.7 31.2H31.7L27 31Z" fill="url(#tournament-gold)" stroke="#fff7bf" stroke-width="2" stroke-linejoin="round"/>
    <path d="M33 66h30v8H33z" fill="url(#tournament-purple)" stroke="#f5d0fe" stroke-width="1.8" stroke-linejoin="round"/>
    <path d="M38 57h20" stroke="#6b3b05" stroke-opacity=".35" stroke-width="3" stroke-linecap="round"/>
    <circle cx="48" cy="45" r="5.5" fill="#06151a" stroke="#d9ffe8" stroke-width="1.9"/>
    <path d="M48 41.7v6.6M44.7 45h6.6" stroke="#38ef7d" stroke-width="1.9" stroke-linecap="round"/>
  </g>

  <path d="M20 80h56" stroke="#d9ffe8" stroke-opacity=".25" stroke-width="3" stroke-linecap="round"/>
</svg>
