<svg xmlns="http://www.w3.org/2000/svg" viewBox="0 0 96 96" fill="none">
  <defs>
    <linearGradient id="ring" x1="16" y1="13" x2="83" y2="84" gradientUnits="userSpaceOnUse">
      <stop stop-color="#72EDFF"/><stop offset=".48" stop-color="#2C88DD"/><stop offset="1" stop-color="#7653D6"/>
    </linearGradient>
    <linearGradient id="sea" x1="31" y1="24" x2="65" y2="74" gradientUnits="userSpaceOnUse">
      <stop stop-color="#77E8F8"/><stop offset="1" stop-color="#2365B7"/>
    </linearGradient>
    <linearGradient id="land" x1="31" y1="28" x2="65" y2="70" gradientUnits="userSpaceOnUse">
      <stop stop-color="#E8F38B"/><stop offset="1" stop-color="#71B953"/>
    </linearGradient>
    <filter id="glow" x="-25%" y="-25%" width="150%" height="150%"><feGaussianBlur stdDeviation="3" result="b"/><feMerge><feMergeNode in="b"/><feMergeNode in="SourceGraphic"/></feMerge></filter>
  </defs>
  <circle cx="48" cy="48" r="40" fill="#142D55" stroke="url(#ring)" stroke-width="5" filter="url(#glow)"/>
  <circle cx="48" cy="48" r="30" fill="url(#sea)" stroke="#D8FAFF" stroke-opacity=".85" stroke-width="2"/>
  <path d="M29 39c5-8 13-12 19-12l3 8-5 6 5 4-3 9-8 1-2 7c-5-4-8-10-9-16Z" fill="url(#land)" stroke="#F6FFD7" stroke-width="1.5" stroke-linejoin="round"/>
  <path d="M58 28c6 2 11 7 14 13l-6 3-2 7-7-2-2-8 3-4Z" fill="url(#land)" stroke="#F6FFD7" stroke-width="1.5" stroke-linejoin="round"/>
  <path d="M55 55l7-3 8 4c-3 7-9 12-17 15l-3-7 5-9Z" fill="url(#land)" stroke="#F6FFD7" stroke-width="1.5" stroke-linejoin="round"/>
  <circle cx="62" cy="37" r="6" fill="#FFCD4B" stroke="#FFF6C8" stroke-width="2"/>
  <path d="M62 34.2v5.6M59.2 37h5.6" stroke="#633A11" stroke-width="1.8" stroke-linecap="round"/>
</svg>
