<svg xmlns="http://www.w3.org/2000/svg" viewBox="0 0 64 64" aria-hidden="true">
  <defs>
    <linearGradient id="tokens-ring" x1="12" y1="9" x2="53" y2="56" gradientUnits="userSpaceOnUse">
      <stop offset="0" stop-color="#38bdf8"/>
      <stop offset=".52" stop-color="#38ef7d"/>
      <stop offset="1" stop-color="#f5af19"/>
    </linearGradient>
    <linearGradient id="tokens-ticket" x1="17" y1="17" x2="49" y2="50" gradientUnits="userSpaceOnUse">
      <stop offset="0" stop-color="#d9ffe8"/>
      <stop offset=".48" stop-color="#38ef7d"/>
      <stop offset="1" stop-color="#11998e"/>
    </linearGradient>
    <linearGradient id="tokens-gold" x1="28" y1="18" x2="44" y2="46" gradientUnits="userSpaceOnUse">
      <stop offset="0" stop-color="#fff7bf"/>
      <stop offset="1" stop-color="#f5af19"/>
    </linearGradient>
    <filter id="tokens-glow" x="-45%" y="-45%" width="190%" height="190%">
      <feGaussianBlur stdDeviation="1.8" result="blur"/>
      <feMerge>
        <feMergeNode in="blur"/>
        <feMergeNode in="SourceGraphic"/>
      </feMerge>
    </filter>
  </defs>
  <circle cx="32" cy="32" r="28" fill="#06151a" opacity=".86"/>
  <circle cx="32" cy="32" r="25" fill="none" stroke="url(#tokens-ring)" stroke-width="3.2" opacity=".9"/>
  <g filter="url(#tokens-glow)">
    <path d="M17 24.5c4.1 0 7.4-3.3 7.4-7.4h23.1c0 4.1 3.3 7.4 7.4 7.4v15c-4.1 0-7.4 3.3-7.4 7.4H24.4c0-4.1-3.3-7.4-7.4-7.4v-15Z" fill="url(#tokens-ticket)" stroke="#d9ffe8" stroke-width="2.4" stroke-linejoin="round"/>
    <path d="M27 20.5v23M39 20.5v23" stroke="#06151a" stroke-opacity=".32" stroke-width="2" stroke-linecap="round" stroke-dasharray="2 4"/>
    <path d="M33 24.5 36.2 31h7.1l-5.8 4.2 2.2 6.8-6.7-4.3-6.7 4.3 2.2-6.8-5.8-4.2h7.1L33 24.5Z" fill="url(#tokens-gold)" stroke="#fff7bf" stroke-width="1.5" stroke-linejoin="round"/>
  </g>
</svg>
