<svg xmlns="http://www.w3.org/2000/svg" viewBox="0 0 64 64" aria-hidden="true">
  <defs>
    <linearGradient id="ducats-gold" x1="13" y1="10" x2="51" y2="55" gradientUnits="userSpaceOnUse">
      <stop offset="0" stop-color="#fff7bf"/>
      <stop offset=".42" stop-color="#ffe08a"/>
      <stop offset="1" stop-color="#f5af19"/>
    </linearGradient>
    <linearGradient id="ducats-green" x1="18" y1="14" x2="48" y2="55" gradientUnits="userSpaceOnUse">
      <stop offset="0" stop-color="#d9ffe8"/>
      <stop offset=".52" stop-color="#38ef7d"/>
      <stop offset="1" stop-color="#11998e"/>
    </linearGradient>
    <filter id="ducats-glow" x="-45%" y="-45%" width="190%" height="190%">
      <feGaussianBlur stdDeviation="1.8" result="blur"/>
      <feMerge>
        <feMergeNode in="blur"/>
        <feMergeNode in="SourceGraphic"/>
      </feMerge>
    </filter>
  </defs>
  <circle cx="32" cy="32" r="28" fill="#06151a" opacity=".86"/>
  <circle cx="32" cy="32" r="25" fill="none" stroke="url(#ducats-green)" stroke-width="3.2" opacity=".9"/>
  <g filter="url(#ducats-glow)">
    <ellipse cx="32" cy="21" rx="17" ry="8" fill="url(#ducats-gold)" stroke="#fff7bf" stroke-width="2"/>
    <path d="M15 21v8c0 4.4 7.6 8 17 8s17-3.6 17-8v-8" fill="url(#ducats-gold)" stroke="#fff7bf" stroke-width="2" stroke-linejoin="round"/>
    <ellipse cx="32" cy="29" rx="17" ry="8" fill="url(#ducats-gold)" stroke="#fff7bf" stroke-width="2"/>
    <path d="M15 29v8c0 4.4 7.6 8 17 8s17-3.6 17-8v-8" fill="url(#ducats-gold)" stroke="#fff7bf" stroke-width="2" stroke-linejoin="round"/>
    <ellipse cx="32" cy="37" rx="17" ry="8" fill="url(#ducats-gold)" stroke="#fff7bf" stroke-width="2"/>
    <path d="M26.5 37.2h11M32 31.6v11.2" stroke="#6b3b05" stroke-opacity=".48" stroke-width="2.4" stroke-linecap="round"/>
  </g>
</svg>
