<svg xmlns="http://www.w3.org/2000/svg" viewBox="0 0 96 96" role="img" aria-label="Originalni globus sa uklonjenim kompasom">
  <defs>
    <radialGradient id="compass-ocean" cx="31%" cy="22%" r="78%">
      <stop offset="0" stop-color="#70d3e5"/>
      <stop offset="0.46" stop-color="#35abd0"/>
      <stop offset="1" stop-color="#21779e"/>
    </radialGradient>
    <linearGradient id="compass-green" x1="0.18" x2="0.84" y1="0" y2="1">
      <stop offset="0" stop-color="#b8df73"/>
      <stop offset="1" stop-color="#61a84d"/>
    </linearGradient>
    <linearGradient id="compass-sand" x1="0.2" x2="0.82" y1="0" y2="1">
      <stop offset="0" stop-color="#ffd16e"/>
      <stop offset="1" stop-color="#df9835"/>
    </linearGradient>
    <linearGradient id="compass-purple" x1="0.18" x2="0.82" y1="0" y2="1">
      <stop offset="0" stop-color="#bf96d4"/>
      <stop offset="1" stop-color="#865ca2"/>
    </linearGradient>
    <linearGradient id="compass-orange" x1="0.18" x2="0.82" y1="0" y2="1">
      <stop offset="0" stop-color="#ff9856"/>
      <stop offset="1" stop-color="#d95f37"/>
    </linearGradient>
    <path id="compass-shape" d="M48 2 57 34 68 23 62 41 95 48 62 55 70 72 56 61 48 96 40 61 26 72 34 55 1 48 34 41 26 23 39 34Z"/>
    <clipPath id="compass-clip">
      <use href="#compass-shape"/>
    </clipPath>
  </defs>
  <use href="#compass-shape" fill="url(#compass-ocean)" stroke="#2a97ba" stroke-width="2.4" stroke-linejoin="round"/>
  <g clip-path="url(#compass-clip)">
    <path fill="url(#compass-green)" d="M-2 13C10 2 29 2 42 12l8 8-8 7-11 1-6 10-11 7L2 36-2 13Z"/>
    <path fill="url(#compass-sand)" d="M5 39c12-5 24 0 28 11-1 11-9 21-14 35-7-7-10-17-8-26L4 49l1-10Z"/>
    <path fill="url(#compass-green)" d="M45 10c16-9 37-5 50 8l5 10-12 7-14-3-10 8-16-6-9-11 6-13Z"/>
    <path fill="url(#compass-green)" d="M24 48c10-4 20 2 22 11-1 12-9 23-14 37-7-7-9-17-7-26l-7-12 6-10Z"/>
    <path fill="url(#compass-sand)" d="M53 36c11-5 22 0 25 10 0 13-8 27-17 39-7-8-8-18-12-26-5-9-3-18 4-23Z"/>
    <path fill="url(#compass-purple)" d="M67 22c9-4 20-1 27 7l-10 7-13-3-8-7 4-4Z"/>
    <path fill="url(#compass-orange)" d="M73 65c10-4 20 0 23 9-6 10-19 11-29 4l6-13Z"/>
    <path fill="url(#compass-purple)" d="M39 87c14-5 32-4 45 3-12 7-31 8-47 4l2-7Z"/>
    <g fill="#efd8aa" opacity="0.9">
      <circle cx="7" cy="51" r="1.4"/>
      <circle cx="11" cy="58" r="1.2"/>
      <circle cx="88" cy="47" r="1.3"/>
      <circle cx="92" cy="57" r="1.1"/>
    </g>
  </g>
</svg>
