<svg xmlns="http://www.w3.org/2000/svg" viewBox="0 0 96 96" role="img" aria-label="Slovo O kao zemlja">
  <defs>
    <radialGradient id="zemljopis-o-clay-sphere" cx="34%" cy="24%" r="72%">
      <stop offset="0" stop-color="#d7f2ee"/>
      <stop offset="0.46" stop-color="#5fb5d7"/>
      <stop offset="1" stop-color="#4389aa"/>
    </radialGradient>
    <filter id="clay-o-shadow" x="-25%" y="-25%" width="150%" height="150%">
      <feDropShadow dx="0" dy="4" stdDeviation="1.8" flood-color="#27384d" flood-opacity="0.28"/>
    </filter>
    <clipPath id="globe-clay-clip">
      <circle cx="48" cy="48" r="40"/>
    </clipPath>
  </defs>
  <circle cx="48" cy="52" r="40" fill="#405d70" opacity="0.24"/>
  <circle cx="48" cy="48" r="40" fill="url(#zemljopis-o-clay-sphere)" filter="url(#clay-o-shadow)"/>
  <g clip-path="url(#globe-clay-clip)">
    <path fill="#7fb866" d="M39 9c8 1 15 4 20 9-7 1-10 4-10 9 0 3 2 5 5 7l-4 7-10-4-4-9-8-2 2-9 9-8Z"/>
    <path fill="#d98562" d="M20 31c5-6 12-7 18-2l-3 8 8 8-4 8-11-2-10-8c-1-4 0-8 2-12Z"/>
    <path fill="#7fb866" d="M55 41c10 1 18 8 20 18l-10 5-4 14-11 4-8-10 4-14-8-7 7-9 10-1Z"/>
    <path fill="#e0b36d" d="M72 24c5 4 8 9 11 15l-9 4-8-6 2-9 4-4Z"/>
    <path fill="#9ac77a" d="M28 68l9 2 4 10-10-2-7-6 4-4Z"/>
  </g>
  <circle cx="48" cy="48" r="40" fill="none" stroke="#fff1d4" stroke-width="3.4" opacity="0.86"/>
  <path d="M25 23c10-10 27-13 42-6" fill="none" stroke="#ffffff" stroke-linecap="round" stroke-width="5" opacity="0.34"/>
</svg>
