<svg xmlns="http://www.w3.org/2000/svg" viewBox="0 0 96 82" role="img" aria-label="Slovo E kao reka iz Zemljopis logoa">
  <defs>
    <linearGradient id="logo-river-face" x1="0.08" x2="0.9" y1="0" y2="1">
      <stop offset="0" stop-color="#72d6eb"/>
      <stop offset="0.48" stop-color="#32acd8"/>
      <stop offset="1" stop-color="#1e72aa"/>
    </linearGradient>
  </defs>
  <path d="M8 51c13 0 26-1 37-9 9-7 9-17 1-21-10-5-21 3-21 16 0 16 14 27 31 25 15-2 23-13 33-12" fill="none" stroke="#1e628f" stroke-linecap="round" stroke-linejoin="round" stroke-width="19" transform="translate(0 3.2)"/>
  <path d="M8 51c13 0 26-1 37-9 9-7 9-17 1-21-10-5-21 3-21 16 0 16 14 27 31 25 15-2 23-13 33-12" fill="none" stroke="url(#logo-river-face)" stroke-linecap="round" stroke-linejoin="round" stroke-width="17"/>
  <path d="M11 47c12 0 23-2 31-8 6-4 7-10 4-14" fill="none" stroke="#78d7e9" stroke-linecap="round" stroke-width="2.4" opacity="0.38"/>
  <path d="M59 58c11-3 19-12 28-11" fill="none" stroke="#48b9dc" stroke-linecap="round" stroke-width="2" opacity="0.34"/>
</svg>
