<svg xmlns="http://www.w3.org/2000/svg" viewBox="0 0 128 82" role="img" aria-label="Slovo E kao reka">
  <defs>
    <linearGradient id="river-clay" x1="0" x2="0" y1="0" y2="1">
      <stop offset="0" stop-color="#a9eff8"/>
      <stop offset="0.52" stop-color="#54c8e3"/>
      <stop offset="1" stop-color="#2d91ba"/>
    </linearGradient>
  </defs>
  <g fill="none" stroke="#267da4" stroke-linecap="round" stroke-linejoin="round" stroke-width="14" opacity="0.58" transform="translate(0 3)">
    <path d="M9 18c8-10 18-10 28 0s20 10 30 0 20-10 30 0 15 8 22 3"/>
    <path d="M9 41c8-10 18-10 28 0s20 10 30 0 20-10 30 0 15 8 22 3"/>
    <path d="M9 64c8-10 18-10 28 0s20 10 30 0 20-10 30 0 15 8 22 3"/>
  </g>
  <g fill="none" stroke="url(#river-clay)" stroke-linecap="round" stroke-linejoin="round" stroke-width="14">
    <path d="M9 18c8-10 18-10 28 0s20 10 30 0 20-10 30 0 15 8 22 3"/>
    <path d="M9 41c8-10 18-10 28 0s20 10 30 0 20-10 30 0 15 8 22 3"/>
    <path d="M9 64c8-10 18-10 28 0s20 10 30 0 20-10 30 0 15 8 22 3"/>
  </g>
  <g fill="none" stroke="#d9f8fb" stroke-linecap="round" stroke-width="2.6" opacity="0.68">
    <path d="M15 14c5-4 11-4 17 0"/>
    <path d="M45 37c5 4 11 4 17 0"/>
    <path d="M78 60c5-4 11-4 17 0"/>
  </g>
</svg>
