<svg xmlns="http://www.w3.org/2000/svg" viewBox="0 0 96 96" role="img" aria-label="Slovo O kao globus">
  <defs>
    <radialGradient id="globe-ocean" cx="34%" cy="24%" r="72%">
      <stop offset="0" stop-color="#a9edf0"/>
      <stop offset="0.46" stop-color="#3bb7d0"/>
      <stop offset="1" stop-color="#26779f"/>
    </radialGradient>
    <clipPath id="globe-clip-v3">
      <circle cx="48" cy="48" r="40"/>
    </clipPath>
  </defs>
  <circle cx="48" cy="48" r="40" fill="url(#globe-ocean)"/>
  <g clip-path="url(#globe-clip-v3)">
    <path fill="#64c76a" d="M39 9c8 1 15 4 20 9-7 1-10 4-10 9 0 3 2 5 5 7l-4 7-10-4-4-9-8-2 2-9 9-8Z"/>
    <path fill="#ee7c57" d="M20 31c5-6 12-7 18-2l-3 8 8 8-4 8-11-2-10-8c-1-4 0-8 2-12Z"/>
    <path fill="#57b968" d="M55 41c10 1 18 8 20 18l-10 5-4 14-11 4-8-10 4-14-8-7 7-9 10-1Z"/>
    <path fill="#f1bd4f" d="M72 24c5 4 8 9 11 15l-9 4-8-6 2-9 4-4Z"/>
    <path fill="#91cf74" d="M28 68l9 2 4 10-10-2-7-6 4-4Z"/>
  </g>
  <circle cx="48" cy="48" r="40" fill="none" stroke="#f1d6a4" stroke-width="2.4" opacity="0.9"/>
  <path d="M25 23c10-10 27-13 42-6" fill="none" stroke="#dff8f8" stroke-linecap="round" stroke-width="4" opacity="0.34"/>
</svg>
