<svg xmlns="http://www.w3.org/2000/svg" viewBox="0 0 96 96" role="img" aria-label="Slovo O kao globus teme Drzava">
  <defs>
    <radialGradient id="state-ocean-face" cx="31%" cy="22%" r="78%">
      <stop offset="0" stop-color="#b5f0ee"/>
      <stop offset="0.34" stop-color="#55c9d2"/>
      <stop offset="0.72" stop-color="#2b9fba"/>
      <stop offset="1" stop-color="#217493"/>
    </radialGradient>
    <linearGradient id="state-land-green" x1="0.2" x2="0.82" y1="0" y2="1">
      <stop offset="0" stop-color="#c2e994"/>
      <stop offset="0.56" stop-color="#82c36f"/>
      <stop offset="1" stop-color="#4f9561"/>
    </linearGradient>
    <linearGradient id="state-land-sand" x1="0.18" x2="0.8" y1="0" y2="1">
      <stop offset="0" stop-color="#ffdc9a"/>
      <stop offset="0.58" stop-color="#e6aa60"/>
      <stop offset="1" stop-color="#b97847"/>
    </linearGradient>
    <linearGradient id="state-land-rose" x1="0.18" x2="0.82" y1="0" y2="1">
      <stop offset="0" stop-color="#f7c2b3"/>
      <stop offset="0.62" stop-color="#e08978"/>
      <stop offset="1" stop-color="#b76560"/>
    </linearGradient>
    <clipPath id="state-globe-clip">
      <circle cx="48" cy="48" r="40"/>
    </clipPath>
  </defs>
  <circle cx="48" cy="51" r="40" fill="#1d6688"/>
  <circle cx="48" cy="48" r="40" fill="url(#state-ocean-face)"/>
  <g clip-path="url(#state-globe-clip)" opacity="0.64" transform="translate(0 2.4)">
    <path fill="#477f55" d="M14 29c5-10 16-16 27-13l7 5-6 6-7 2-4 8-7 5-8-5-2-8Z"/>
    <path fill="#9d6b42" d="M25 42c8-3 15 2 16 9-1 9-7 16-10 26-5-5-6-12-5-18l-5-9 4-8Z"/>
    <path fill="#477f55" d="M48 22c10-8 26-7 34 2l5 7-8 5-10-2-7 5-11-4-7-7 4-6Z"/>
    <path fill="#a95754" d="M55 39c8-5 18-1 20 7 0 10-7 22-14 30-5-6-5-14-9-20-4-7-3-13 3-17Z"/>
    <path fill="#9d6b42" d="M72 65c7-4 14-1 16 5-4 7-13 8-20 3l4-8Z"/>
  </g>
  <g clip-path="url(#state-globe-clip)">
    <path fill="url(#state-land-green)" d="M14 29c5-10 16-16 27-13l7 5-6 6-7 2-4 8-7 5-8-5-2-8Z"/>
    <path fill="url(#state-land-sand)" d="M25 42c8-3 15 2 16 9-1 9-7 16-10 26-5-5-6-12-5-18l-5-9 4-8Z"/>
    <path fill="url(#state-land-green)" d="M48 22c10-8 26-7 34 2l5 7-8 5-10-2-7 5-11-4-7-7 4-6Z"/>
    <path fill="url(#state-land-rose)" d="M55 39c8-5 18-1 20 7 0 10-7 22-14 30-5-6-5-14-9-20-4-7-3-13 3-17Z"/>
    <path fill="url(#state-land-sand)" d="M72 65c7-4 14-1 16 5-4 7-13 8-20 3l4-8Z"/>
    <ellipse cx="43" cy="13" rx="3.2" ry="2" fill="url(#state-land-sand)"/>
    <ellipse cx="84" cy="48" rx="2.5" ry="1.7" fill="url(#state-land-rose)"/>
  </g>
  <circle cx="48" cy="48" r="40" fill="none" stroke="#d7ece1" stroke-width="1.8" opacity="0.72"/>
  <path d="M24 24c10-10 27-13 42-7" fill="none" stroke="#e7fbf6" stroke-linecap="round" stroke-width="3.8" opacity="0.38"/>
</svg>
