<svg xmlns="http://www.w3.org/2000/svg" viewBox="0 0 132 86" role="img" aria-label="Slovo M kao planine iz Zemljopis logoa">
  <defs>
    <linearGradient id="logo-blue-mountain" x1="0.2" x2="0.82" y1="0" y2="1">
      <stop offset="0" stop-color="#70c9ea"/>
      <stop offset="0.46" stop-color="#3b99d1"/>
      <stop offset="1" stop-color="#286aa8"/>
    </linearGradient>
    <linearGradient id="logo-orange-mountain" x1="0.18" x2="0.82" y1="0" y2="1">
      <stop offset="0" stop-color="#ffb36a"/>
      <stop offset="0.5" stop-color="#f18243"/>
      <stop offset="1" stop-color="#cf512f"/>
    </linearGradient>
  </defs>
  <g transform="translate(0 3.2)">
    <path fill="#245a8e" d="M4 76 43 15c4-6 12-6 16 0l39 61H4Z"/>
    <path fill="#a83f2a" d="M58 76 88 31c4-6 11-6 15 0l28 45H58Z"/>
  </g>
  <path fill="url(#logo-blue-mountain)" d="M4 76 43 15c4-6 12-6 16 0l39 61H4Z"/>
  <path fill="url(#logo-orange-mountain)" d="M58 76 88 31c4-6 11-6 15 0l28 45H58Z"/>
  <path fill="#f7e9ca" d="m35 45 10-17 9 17-7-4-4 6-4-7-4 5Z"/>
  <path fill="#f7e9ca" d="m82 55 11-17 9 17-7-4-4 6-4-7-5 5Z"/>
  <path d="M17 68 44 26" fill="none" stroke="#82cdeb" stroke-linecap="round" stroke-width="2.2" opacity="0.3"/>
  <path d="M72 69 92 40" fill="none" stroke="#ffbd78" stroke-linecap="round" stroke-width="2" opacity="0.28"/>
</svg>
