<svg xmlns="http://www.w3.org/2000/svg" viewBox="0 0 96 96" role="img" aria-label="Slovo O">
  <defs>
    <linearGradient id="zemljopis-o-gradient" x1="0" x2="0" y1="0" y2="1">
      <stop offset="0" stop-color="#38ef7d"/>
      <stop offset="1" stop-color="#11998e"/>
    </linearGradient>
    <filter id="soft-glow" x="-25%" y="-25%" width="150%" height="150%">
      <feGaussianBlur stdDeviation="2.2" result="blur"/>
      <feMerge>
        <feMergeNode in="blur"/>
        <feMergeNode in="SourceGraphic"/>
      </feMerge>
    </filter>
    <clipPath id="globe-clip">
      <circle cx="48" cy="48" r="40"/>
    </clipPath>
  </defs>
  <circle cx="48" cy="48" r="40" fill="url(#zemljopis-o-gradient)" filter="url(#soft-glow)"/>
  <g clip-path="url(#globe-clip)" fill="#031308" opacity="0.38">
    <path d="M39 9c8 1 15 4 20 9-7 1-10 4-10 9 0 3 2 5 5 7l-4 7-10-4-4-9-8-2 2-9 9-8Z"/>
    <path d="M20 31c5-6 12-7 18-2l-3 8 8 8-4 8-11-2-10-8c-1-4 0-8 2-12Z"/>
    <path d="M55 41c10 1 18 8 20 18l-10 5-4 14-11 4-8-10 4-14-8-7 7-9 10-1Z"/>
    <path d="M72 24c5 4 8 9 11 15l-9 4-8-6 2-9 4-4Z"/>
    <path d="M28 68l9 2 4 10-10-2-7-6 4-4Z"/>
  </g>
</svg>
