<svg xmlns="http://www.w3.org/2000/svg" viewBox="0 0 96 96" role="img" aria-label="Slovo O kao centralni globus iz Zemljopis logoa bez kompasa">
  <defs>
    <radialGradient id="logo-globe-ocean" cx="31%" cy="21%" r="78%">
      <stop offset="0" stop-color="#78d7e8"/>
      <stop offset="0.42" stop-color="#35acd2"/>
      <stop offset="1" stop-color="#21779f"/>
    </radialGradient>
    <linearGradient id="logo-land-green" x1="0.15" x2="0.84" y1="0" y2="1">
      <stop offset="0" stop-color="#b6df75"/>
      <stop offset="1" stop-color="#62a94f"/>
    </linearGradient>
    <linearGradient id="logo-land-sand" x1="0.18" x2="0.82" y1="0" y2="1">
      <stop offset="0" stop-color="#ffd36f"/>
      <stop offset="1" stop-color="#e29a35"/>
    </linearGradient>
    <linearGradient id="logo-land-purple" x1="0.16" x2="0.84" y1="0" y2="1">
      <stop offset="0" stop-color="#c39ad8"/>
      <stop offset="1" stop-color="#8a5fa7"/>
    </linearGradient>
    <linearGradient id="logo-land-orange" x1="0.18" x2="0.82" y1="0" y2="1">
      <stop offset="0" stop-color="#ff9b58"/>
      <stop offset="1" stop-color="#dc6138"/>
    </linearGradient>
    <clipPath id="logo-globe-clip">
      <circle cx="48" cy="48" r="39"/>
    </clipPath>
  </defs>
  <circle cx="48" cy="51" r="40" fill="#1c668c"/>
  <circle cx="48" cy="48" r="40" fill="#ead2a4"/>
  <circle cx="48" cy="48" r="37" fill="url(#logo-globe-ocean)"/>
  <g clip-path="url(#logo-globe-clip)" opacity="0.56" transform="translate(0 2.1)">
    <path fill="#4a873f" d="M14 27c6-9 17-14 28-10l6 5-6 6-8 1-4 8-7 5-8-6-1-9Z"/>
    <path fill="#4a873f" d="M25 43c8-4 15 1 17 8-1 9-7 17-10 26-5-5-7-12-6-19l-5-8 4-7Z"/>
    <path fill="#4a873f" d="M48 20c12-7 27-5 36 4l3 7-9 4-9-2-7 6-12-4-6-8 4-7Z"/>
    <path fill="#b8752e" d="M54 40c8-4 16 0 18 7 0 9-6 18-12 27-5-6-5-13-9-19-3-6-2-12 3-15Z"/>
    <path fill="#a54a31" d="M72 63c7-3 14 0 16 6-4 7-13 8-20 3l4-9Z"/>
  </g>
  <g clip-path="url(#logo-globe-clip)">
    <path fill="url(#logo-land-green)" d="M14 27c6-9 17-14 28-10l6 5-6 6-8 1-4 8-7 5-8-6-1-9Z"/>
    <path fill="url(#logo-land-green)" d="M25 43c8-4 15 1 17 8-1 9-7 17-10 26-5-5-7-12-6-19l-5-8 4-7Z"/>
    <path fill="url(#logo-land-green)" d="M48 20c12-7 27-5 36 4l3 7-9 4-9-2-7 6-12-4-6-8 4-7Z"/>
    <path fill="url(#logo-land-sand)" d="M54 40c8-4 16 0 18 7 0 9-6 18-12 27-5-6-5-13-9-19-3-6-2-12 3-15Z"/>
    <path fill="url(#logo-land-purple)" d="M68 28c6-3 13-1 17 4l-7 4-9-2-5-4 4-2Z"/>
    <path fill="url(#logo-land-orange)" d="M72 63c7-3 14 0 16 6-4 7-13 8-20 3l4-9Z"/>
    <path fill="url(#logo-land-purple)" d="M45 78c9-3 21-2 29 3-8 5-21 6-31 3l2-6Z"/>
    <ellipse cx="44" cy="14" rx="2.6" ry="1.7" fill="url(#logo-land-sand)"/>
    <ellipse cx="84" cy="49" rx="2.3" ry="1.5" fill="url(#logo-land-orange)"/>
    <g fill="#efd9ad" opacity="0.9">
      <circle cx="14" cy="47" r="1.2"/>
      <circle cx="16" cy="52" r="1"/>
      <circle cx="80" cy="43" r="1.1"/>
      <circle cx="87" cy="55" r="1"/>
    </g>
  </g>
  <path d="M25 23c9-8 23-11 36-7" fill="none" stroke="#9fe4ec" stroke-linecap="round" stroke-width="2.6" opacity="0.32"/>
</svg>
