<svg xmlns="http://www.w3.org/2000/svg" viewBox="0 0 128 82" role="img" aria-label="Slovo E kao voda">
  <defs>
    <linearGradient id="zemljopis-e-clay-gradient" x1="0" x2="0" y1="0" y2="1">
      <stop offset="0" stop-color="#c7edf4"/>
      <stop offset="0.48" stop-color="#5fb5d7"/>
      <stop offset="1" stop-color="#4389aa"/>
    </linearGradient>
    <filter id="clay-soft-shadow" x="-18%" y="-42%" width="136%" height="184%">
      <feDropShadow dx="0" dy="5" stdDeviation="2.8" flood-color="#27384d" flood-opacity="0.32"/>
    </filter>
  </defs>
  <g fill="none" stroke="#405d70" stroke-linecap="round" stroke-linejoin="round" stroke-width="16" opacity="0.34">
    <path d="M9 22c8-10 18-10 28 0s20 10 30 0 20-10 30 0 15 8 22 3"/>
    <path d="M9 45c8-10 18-10 28 0s20 10 30 0 20-10 30 0 15 8 22 3"/>
    <path d="M9 68c8-10 18-10 28 0s20 10 30 0 20-10 30 0 15 8 22 3"/>
  </g>
  <g fill="none" stroke="url(#zemljopis-e-clay-gradient)" stroke-linecap="round" stroke-linejoin="round" stroke-width="14" filter="url(#clay-soft-shadow)">
    <path d="M9 18c8-10 18-10 28 0s20 10 30 0 20-10 30 0 15 8 22 3"/>
    <path d="M9 41c8-10 18-10 28 0s20 10 30 0 20-10 30 0 15 8 22 3"/>
    <path d="M9 64c8-10 18-10 28 0s20 10 30 0 20-10 30 0 15 8 22 3"/>
  </g>
  <g fill="none" stroke="#f4fff8" stroke-linecap="round" stroke-width="3.5" opacity="0.62">
    <path d="M15 14c5-4 11-4 17 0"/>
    <path d="M45 37c5 4 11 4 17 0"/>
    <path d="M78 60c5-4 11-4 17 0"/>
  </g>
</svg>
